<svg width="269" height="80" viewBox="0 0 269 80" fill="none" xmlns="http://www.w3.org/2000/svg">
<path d="M258.949 79.5005H9.40551C4.22045 79.5005 0 75.2711 0 70.0936V9.39298C0 4.21353 4.22045 0 9.40551 0H258.949C264.132 0 268.502 4.21353 268.502 9.39298V70.0936C268.502 75.2711 264.132 79.5005 258.949 79.5005Z" fill="#A6A6A6"/>
<path d="M266.576 70.0923C266.576 74.2979 263.167 77.7045 258.95 77.7045H9.40492C5.19044 77.7045 1.76953 74.2979 1.76953 70.0923V9.38773C1.76953 5.18415 5.19044 1.76562 9.40492 1.76562H258.948C263.167 1.76562 266.574 5.18415 266.574 9.38773L266.576 70.0923Z" fill="black"/>
<path d="M59.9212 39.3274C59.8635 32.9216 65.1699 29.8052 65.4125 29.6601C62.4073 25.2816 57.7493 24.6834 56.1124 24.6357C52.2003 24.2243 48.4055 26.975 46.4126 26.975C44.3799 26.975 41.311 24.6754 38.0035 24.743C33.7472 24.8086 29.7655 27.2711 27.5817 31.0951C23.0748 38.8921 26.436 50.3501 30.754 56.6525C32.9139 59.7391 35.4378 63.1855 38.7414 63.0642C41.9733 62.9311 43.1806 61.0052 47.0808 61.0052C50.9453 61.0052 52.079 63.0642 55.4481 62.9867C58.9168 62.9311 61.1006 59.8862 63.185 56.7718C65.681 53.234 66.6835 49.7499 66.7232 49.571C66.6417 49.5432 59.9868 47.0051 59.9212 39.3274Z" fill="white"/>
<path d="M53.5578 20.4863C55.2961 18.314 56.4855 15.3585 56.1553 12.3594C53.6393 12.4707 50.4929 14.0984 48.681 16.2231C47.078 18.0953 45.646 21.1641 46.0159 24.0499C48.8421 24.2606 51.7439 22.6249 53.5578 20.4863Z" fill="white"/>
<path d="M106.693 62.6217H102.176L99.702 54.8525H91.102L88.7451 62.6217H84.3477L92.8681 36.1719H98.1307L106.693 62.6217ZM98.9561 51.593L96.7186 44.6864C96.4819 43.9808 96.0384 42.3193 95.3841 39.7037H95.3045C95.044 40.8286 94.6243 42.4902 94.0475 44.6864L91.8498 51.593H98.9561Z" fill="white"/>
<path d="M128.606 52.8493C128.606 56.093 127.729 58.6569 125.975 60.539C124.403 62.2145 122.452 63.0513 120.123 63.0513C117.609 63.0513 115.803 62.1489 114.704 60.3443H114.624V70.3911H110.384V49.8263C110.384 47.7872 110.33 45.6943 110.227 43.5478H113.956L114.192 46.5708H114.272C115.686 44.2931 117.832 43.1562 120.712 43.1562C122.963 43.1562 124.843 44.0447 126.347 45.8235C127.854 47.6043 128.606 49.9456 128.606 52.8493ZM124.286 53.0044C124.286 51.148 123.868 49.6177 123.029 48.4132C122.112 47.1571 120.881 46.5291 119.338 46.5291C118.292 46.5291 117.341 46.8789 116.492 47.5685C115.64 48.2642 115.083 49.1725 114.823 50.2974C114.692 50.8221 114.626 51.2514 114.626 51.5893V54.7693C114.626 56.1566 115.052 57.3272 115.903 58.2832C116.754 59.2392 117.86 59.7162 119.22 59.7162C120.817 59.7162 122.061 59.1001 122.95 57.8718C123.841 56.6415 124.286 55.0197 124.286 53.0044Z" fill="white"/>
<path d="M150.557 52.8493C150.557 56.093 149.68 58.6569 147.924 60.539C146.355 62.2145 144.403 63.0513 142.074 63.0513C139.56 63.0513 137.755 62.1489 136.657 60.3443H136.577V70.3911H132.337V49.8263C132.337 47.7872 132.283 45.6943 132.18 43.5478H135.909L136.146 46.5708H136.225C137.637 44.2931 139.783 43.1562 142.665 43.1562C144.915 43.1562 146.794 44.0447 148.302 45.8235C149.803 47.6043 150.557 49.9456 150.557 52.8493ZM146.237 53.0044C146.237 51.148 145.818 49.6177 144.978 48.4132C144.061 47.1571 142.834 46.5291 141.289 46.5291C140.241 46.5291 139.292 46.8789 138.441 47.5685C137.59 48.2642 137.035 49.1725 136.774 50.2974C136.645 50.8221 136.577 51.2514 136.577 51.5893V54.7693C136.577 56.1566 137.003 57.3272 137.85 58.2832C138.701 59.2372 139.807 59.7162 141.172 59.7162C142.769 59.7162 144.012 59.1001 144.901 57.8718C145.792 56.6415 146.237 55.0197 146.237 53.0044Z" fill="white"/>
<path d="M175.1 55.2012C175.1 57.4511 174.318 59.2816 172.749 60.6947C171.025 62.239 168.624 63.0102 165.539 63.0102C162.691 63.0102 160.408 62.4616 158.68 61.3625L159.662 57.8307C161.524 58.9556 163.566 59.5201 165.792 59.5201C167.389 59.5201 168.632 59.1584 169.525 58.4389C170.414 57.7194 170.858 56.7535 170.858 55.549C170.858 54.4758 170.492 53.5715 169.758 52.8381C169.028 52.1047 167.809 51.423 166.106 50.7929C161.472 49.0658 159.157 46.5357 159.157 43.2086C159.157 41.0342 159.969 39.2514 161.593 37.8642C163.212 36.4749 165.372 35.7812 168.073 35.7812C170.482 35.7812 172.483 36.2006 174.08 37.0374L173.02 40.4917C171.528 39.6808 169.841 39.2753 167.954 39.2753C166.462 39.2753 165.297 39.643 164.461 40.3744C163.755 41.0283 163.401 41.8253 163.401 42.7693C163.401 43.8148 163.805 44.6793 164.617 45.3591C165.323 45.9871 166.605 46.6669 168.467 47.4002C170.744 48.3165 172.417 49.3878 173.493 50.616C174.565 51.8404 175.1 53.3727 175.1 55.2012Z" fill="white"/>
<path d="M189.119 46.729H184.445V55.9889C184.445 58.3441 185.269 59.5207 186.92 59.5207C187.677 59.5207 188.306 59.4551 188.803 59.3239L188.92 62.5417C188.085 62.8537 186.985 63.0107 185.623 63.0107C183.948 63.0107 182.639 62.5 181.695 61.4804C180.754 60.4588 180.281 58.7455 180.281 56.3387V46.7251H177.496V43.545H180.281V40.053L184.445 38.7969V43.545H189.119V46.729Z" fill="white"/>
<path d="M210.209 52.9249C210.209 55.8565 209.37 58.2633 207.695 60.1455C205.939 62.0833 203.608 63.0493 200.702 63.0493C197.902 63.0493 195.672 62.1211 194.01 60.2648C192.347 58.4084 191.516 56.0651 191.516 53.2409C191.516 50.2855 192.371 47.8647 194.087 45.9825C195.8 44.0983 198.111 43.1562 201.017 43.1562C203.817 43.1562 206.07 44.0844 207.771 45.9427C209.398 47.7454 210.209 50.0728 210.209 52.9249ZM205.81 53.062C205.81 51.3031 205.434 49.7945 204.672 48.5364C203.783 47.014 202.512 46.2548 200.865 46.2548C199.161 46.2548 197.866 47.016 196.977 48.5364C196.215 49.7965 195.84 51.3289 195.84 53.1415C195.84 54.9005 196.215 56.409 196.977 57.6651C197.894 59.1875 199.175 59.9468 200.828 59.9468C202.447 59.9468 203.718 59.1716 204.634 57.6253C205.416 56.3434 205.81 54.819 205.81 53.062Z" fill="white"/>
<path d="M223.992 47.2744C223.573 47.1969 223.125 47.1571 222.656 47.1571C221.164 47.1571 220.01 47.7196 219.199 48.8465C218.493 49.8403 218.139 51.0964 218.139 52.6128V62.62H213.901L213.94 49.5541C213.94 47.3559 213.887 45.3544 213.781 43.5498H217.475L217.63 47.1989H217.747C218.195 45.9447 218.901 44.9351 219.867 44.1778C220.812 43.4961 221.832 43.1562 222.932 43.1562C223.324 43.1562 223.678 43.1841 223.992 43.2338V47.2744Z" fill="white"/>
<path d="M242.954 52.1783C242.954 52.9375 242.904 53.5775 242.798 54.1002H230.077C230.127 55.9843 230.742 57.4253 231.923 58.419C232.995 59.3075 234.381 59.7527 236.084 59.7527C237.967 59.7527 239.686 59.4525 241.231 58.8503L241.895 61.7919C240.09 62.5789 237.957 62.9704 235.497 62.9704C232.538 62.9704 230.215 62.0999 228.524 60.3608C226.837 58.6218 225.992 56.2864 225.992 53.3568C225.992 50.4809 226.778 48.086 228.351 46.176C229.998 44.1368 232.223 43.1172 235.024 43.1172C237.774 43.1172 239.857 44.1368 241.271 46.176C242.391 47.7958 242.954 49.7992 242.954 52.1783ZM238.91 51.0792C238.938 49.8231 238.661 48.7379 238.087 47.8216C237.353 46.643 236.225 46.0547 234.708 46.0547C233.321 46.0547 232.194 46.6291 231.332 47.7819C230.626 48.6981 230.207 49.7972 230.077 51.0772L238.91 51.0792Z" fill="white"/>
<path d="M97.5555 19.8959C97.5555 22.2352 96.8535 23.9961 95.4513 25.1787C94.1525 26.2698 92.3068 26.8164 89.9162 26.8164C88.7308 26.8164 87.7164 26.7647 86.8672 26.6614V13.8797C87.975 13.7008 89.1683 13.6094 90.4572 13.6094C92.7344 13.6094 94.4509 14.1043 95.6084 15.094C96.9052 16.213 97.5555 17.813 97.5555 19.8959ZM95.3578 19.9535C95.3578 18.437 94.9561 17.2743 94.1525 16.4634C93.349 15.6545 92.1756 15.2491 90.6302 15.2491C89.9739 15.2491 89.415 15.2928 88.9516 15.3842V25.1012C89.2081 25.1409 89.6775 25.1588 90.3597 25.1588C91.9548 25.1588 93.1859 24.7156 94.0531 23.8292C94.9203 22.9427 95.3578 21.6508 95.3578 19.9535Z" fill="white"/>
<path d="M109.21 21.9385C109.21 23.3794 108.798 24.56 107.975 25.4862C107.112 26.4382 105.968 26.9132 104.54 26.9132C103.164 26.9132 102.068 26.4581 101.251 25.5438C100.435 24.6316 100.027 23.4808 100.027 22.0935C100.027 20.6426 100.447 19.4521 101.29 18.5279C102.134 17.6037 103.267 17.1406 104.695 17.1406C106.072 17.1406 107.177 17.5958 108.015 18.508C108.81 19.3945 109.21 20.5393 109.21 21.9385ZM107.048 22.0061C107.048 21.1415 106.861 20.4001 106.489 19.782C106.052 19.0347 105.429 18.6611 104.62 18.6611C103.782 18.6611 103.146 19.0347 102.708 19.782C102.334 20.4001 102.15 21.1534 102.15 22.0438C102.15 22.9084 102.336 23.6497 102.708 24.2678C103.16 25.0151 103.788 25.3888 104.6 25.3888C105.395 25.3888 106.02 25.0092 106.469 24.248C106.855 23.6179 107.048 22.8706 107.048 22.0061Z" fill="white"/>
<path d="M124.834 17.3281L121.901 26.6973H119.991L118.776 22.6288C118.468 21.6132 118.217 20.6035 118.022 19.6018H117.984C117.803 20.6314 117.553 21.639 117.231 22.6288L115.94 26.6973H114.009L111.25 17.3281H113.392L114.452 21.7821C114.709 22.8355 114.92 23.8392 115.089 24.7892H115.126C115.281 24.0062 115.538 23.0084 115.9 21.802L117.231 17.3301H118.929L120.204 21.7066C120.512 22.7739 120.763 23.8015 120.956 24.7912H121.014C121.155 23.8273 121.368 22.7997 121.65 21.7066L122.788 17.3301H124.834V17.3281Z" fill="white"/>
<path d="M135.64 26.6987H133.556V21.3324C133.556 19.6788 132.927 18.852 131.666 18.852C131.048 18.852 130.548 19.0786 130.161 19.5337C129.777 19.9889 129.582 20.5255 129.582 21.1396V26.6967H127.497V20.0068C127.497 19.1839 127.472 18.2915 127.422 17.3256H129.254L129.351 18.7904H129.409C129.651 18.3353 130.013 17.9596 130.489 17.6595C131.054 17.3097 131.686 17.1328 132.378 17.1328C133.253 17.1328 133.981 17.415 134.56 17.9815C135.28 18.6751 135.64 19.7106 135.64 21.086V26.6987Z" fill="white"/>
<path d="M141.387 26.6994H139.305V13.0312H141.387V26.6994Z" fill="white"/>
<path d="M153.659 21.9385C153.659 23.3794 153.248 24.56 152.424 25.4862C151.561 26.4382 150.415 26.9132 148.989 26.9132C147.611 26.9132 146.515 26.4581 145.7 25.5438C144.884 24.6316 144.477 23.4808 144.477 22.0935C144.477 20.6426 144.896 19.4521 145.74 18.5279C146.583 17.6037 147.716 17.1406 149.143 17.1406C150.521 17.1406 151.625 17.5958 152.464 18.508C153.26 19.3945 153.659 20.5393 153.659 21.9385ZM151.495 22.0061C151.495 21.1415 151.308 20.4001 150.937 19.782C150.501 19.0347 149.876 18.6611 149.069 18.6611C148.23 18.6611 147.593 19.0347 147.158 19.782C146.784 20.4001 146.599 21.1534 146.599 22.0438C146.599 22.9084 146.786 23.6497 147.158 24.2678C147.609 25.0151 148.238 25.3888 149.049 25.3888C149.845 25.3888 150.467 25.0092 150.917 24.248C151.304 23.6179 151.495 22.8706 151.495 22.0061Z" fill="white"/>
<path d="M163.748 26.7006H161.876L161.721 25.6213H161.663C161.023 26.4819 160.11 26.9132 158.925 26.9132C158.04 26.9132 157.324 26.629 156.785 26.0646C156.295 25.5518 156.051 24.9138 156.051 24.1565C156.051 23.0117 156.528 22.1392 157.489 21.535C158.447 20.9308 159.796 20.6347 161.532 20.6486V20.4737C161.532 19.2394 160.884 18.6233 159.585 18.6233C158.66 18.6233 157.845 18.8558 157.141 19.317L156.717 17.9495C157.588 17.4109 158.664 17.1406 159.933 17.1406C162.383 17.1406 163.613 18.4325 163.613 21.0163V24.4666C163.613 25.4027 163.658 26.148 163.748 26.7006ZM161.584 23.4808V22.0359C159.285 21.9961 158.135 22.6262 158.135 23.924C158.135 24.4129 158.266 24.7786 158.535 25.0231C158.803 25.2676 159.146 25.3888 159.553 25.3888C160.011 25.3888 160.438 25.2437 160.828 24.9555C161.22 24.6653 161.461 24.2977 161.55 23.8465C161.572 23.7451 161.584 23.6219 161.584 23.4808Z" fill="white"/>
<path d="M175.591 26.6994H173.741L173.644 25.1948H173.586C172.995 26.3396 171.989 26.912 170.575 26.912C169.445 26.912 168.504 26.4688 167.758 25.5824C167.013 24.696 166.641 23.5452 166.641 22.1321C166.641 20.6156 167.044 19.3873 167.856 18.4492C168.641 17.5747 169.604 17.1374 170.75 17.1374C172.009 17.1374 172.89 17.5608 173.391 18.4095H173.431V13.0312H175.517V24.1752C175.517 25.0875 175.541 25.9282 175.591 26.6994ZM173.431 22.7482V21.186C173.431 20.9157 173.411 20.6971 173.373 20.5301C173.256 20.0293 173.003 19.6079 172.619 19.2681C172.231 18.9282 171.764 18.7573 171.225 18.7573C170.447 18.7573 169.839 19.0653 169.391 19.6835C168.948 20.3016 168.723 21.0906 168.723 22.0546C168.723 22.9807 168.936 23.732 169.363 24.3104C169.815 24.9265 170.424 25.2346 171.185 25.2346C171.869 25.2346 172.416 24.9782 172.832 24.4634C173.234 23.9884 173.431 23.416 173.431 22.7482Z" fill="white"/>
<path d="M193.417 21.9385C193.417 23.3794 193.005 24.56 192.182 25.4862C191.319 26.4382 190.177 26.9132 188.747 26.9132C187.373 26.9132 186.277 26.4581 185.458 25.5438C184.642 24.6316 184.234 23.4808 184.234 22.0935C184.234 20.6426 184.654 19.4521 185.497 18.5279C186.341 17.6037 187.474 17.1406 188.904 17.1406C190.279 17.1406 191.386 17.5958 192.222 18.508C193.017 19.3945 193.417 20.5393 193.417 21.9385ZM191.257 22.0061C191.257 21.1415 191.07 20.4001 190.698 19.782C190.259 19.0347 189.638 18.6611 188.827 18.6611C187.991 18.6611 187.355 19.0347 186.915 19.782C186.541 20.4001 186.357 21.1534 186.357 22.0438C186.357 22.9084 186.543 23.6497 186.915 24.2678C187.367 25.0151 187.995 25.3888 188.807 25.3888C189.602 25.3888 190.229 25.0092 190.678 24.248C191.062 23.6179 191.257 22.8706 191.257 22.0061Z" fill="white"/>
<path d="M204.622 26.6987H202.54V21.3324C202.54 19.6788 201.912 18.852 200.649 18.852C200.03 18.852 199.531 19.0786 199.145 19.5337C198.759 19.9889 198.566 20.5255 198.566 21.1396V26.6967H196.48V20.0068C196.48 19.1839 196.456 18.2915 196.406 17.3256H198.236L198.333 18.7904H198.391C198.636 18.3353 198.998 17.9596 199.471 17.6595C200.038 17.3097 200.668 17.1328 201.363 17.1328C202.236 17.1328 202.964 17.415 203.542 17.9815C204.264 18.6751 204.622 19.7106 204.622 21.086V26.6987Z" fill="white"/>
<path d="M218.652 18.8935H216.356V23.4449C216.356 24.6017 216.764 25.18 217.572 25.18C217.945 25.18 218.256 25.1482 218.5 25.0827L218.554 26.6627C218.142 26.8177 217.601 26.8953 216.935 26.8953C216.112 26.8953 215.471 26.6448 215.008 26.144C214.542 25.6431 214.312 24.8004 214.312 23.6179V18.8935H212.941V17.3333H214.312V15.6161L216.354 15V17.3314H218.65L218.652 18.8935Z" fill="white"/>
<path d="M229.686 26.6994H227.599V21.3728C227.599 19.6934 226.971 18.8527 225.712 18.8527C224.745 18.8527 224.085 19.3396 223.723 20.3135C223.661 20.5182 223.625 20.7686 223.625 21.0628V26.6974H221.543V13.0312H223.625V18.6778H223.665C224.321 17.6502 225.262 17.1374 226.481 17.1374C227.345 17.1374 228.059 17.4197 228.625 17.9861C229.332 18.6917 229.686 19.7411 229.686 21.1284V26.6994Z" fill="white"/>
<path d="M241.07 21.575C241.07 21.9487 241.042 22.2627 240.992 22.5191H234.741C234.769 23.4453 235.067 24.1509 235.646 24.6398C236.175 25.077 236.857 25.2957 237.693 25.2957C238.618 25.2957 239.461 25.1486 240.221 24.8524L240.547 26.2994C239.658 26.6849 238.612 26.8777 237.4 26.8777C235.948 26.8777 234.805 26.4504 233.977 25.5958C233.146 24.7411 232.734 23.5944 232.734 22.1554C232.734 20.7423 233.118 19.5657 233.892 18.6276C234.699 17.6259 235.791 17.125 237.17 17.125C238.518 17.125 239.542 17.6259 240.235 18.6276C240.793 19.4226 241.07 20.4064 241.07 21.575ZM239.081 21.0364C239.097 20.4183 238.96 19.8857 238.677 19.4365C238.315 18.8581 237.764 18.5679 237.018 18.5679C236.338 18.5679 235.783 18.8502 235.36 19.4166C235.014 19.8678 234.809 20.4064 234.741 21.0364H239.081Z" fill="white"/>
</svg>
