<svg width="89" height="55" viewBox="0 0 89 55" fill="none" xmlns="http://www.w3.org/2000/svg">
<mask id="path-1-outside-1_528_10905" maskUnits="userSpaceOnUse" x="-0.169922" y="-0.109375" width="89" height="55" fill="black">
<rect fill="white" x="-0.169922" y="-0.109375" width="89" height="55"/>
<path d="M32.5098 34.5391V41.4297H1.2207L1.00977 36.1914L19.1504 1.70312H25.6543L19.0449 14.5352L9.37695 34.5391H32.5098ZM27.5527 1.70312V52.8906H19.3262V1.70312H27.5527ZM39.5762 48.6016C39.5762 47.2422 40.0098 46.1055 40.877 45.1914C41.7676 44.2773 42.9863 43.8203 44.5332 43.8203C46.0801 43.8203 47.2871 44.2773 48.1543 45.1914C49.0449 46.1055 49.4902 47.2422 49.4902 48.6016C49.4902 49.9141 49.0449 51.0273 48.1543 51.9414C47.2871 52.8555 46.0801 53.3125 44.5332 53.3125C42.9863 53.3125 41.7676 52.8555 40.877 51.9414C40.0098 51.0273 39.5762 49.9141 39.5762 48.6016ZM87.0723 38.9336C87.0723 42.1211 86.4512 44.8047 85.209 46.9844C83.9902 49.1641 82.3027 50.8164 80.1465 51.9414C78.0137 53.043 75.5996 53.5938 72.9043 53.5938C70.1855 53.5938 67.748 53.043 65.5918 51.9414C63.459 50.8164 61.7598 49.1641 60.4941 46.9844C59.252 44.8047 58.6309 42.1211 58.6309 38.9336C58.6309 36.8008 58.9707 34.8789 59.6504 33.168C60.3535 31.457 61.3379 29.9688 62.6035 28.7031C63.8926 27.4375 65.4043 26.4648 67.1387 25.7852C68.873 25.1055 70.7715 24.7656 72.834 24.7656C75.5762 24.7656 78.0254 25.3633 80.1816 26.5586C82.3379 27.7539 84.0254 29.4062 85.2441 31.5156C86.4629 33.625 87.0723 36.0977 87.0723 38.9336ZM78.916 38.4766C78.916 36.7656 78.6582 35.2773 78.1426 34.0117C77.6504 32.7461 76.9473 31.7734 76.0332 31.0938C75.1426 30.3906 74.0762 30.0391 72.834 30.0391C71.5918 30.0391 70.5254 30.3906 69.6348 31.0938C68.7441 31.7734 68.0527 32.7461 67.5605 34.0117C67.0684 35.2773 66.8223 36.7656 66.8223 38.4766C66.8223 40.1875 67.0566 41.6641 67.5254 42.9062C68.0176 44.125 68.709 45.0625 69.5996 45.7188C70.5137 46.375 71.6152 46.7031 72.9043 46.7031C74.1699 46.7031 75.248 46.375 76.1387 45.7188C77.0527 45.0625 77.7441 44.125 78.2129 42.9062C78.6816 41.6641 78.916 40.1875 78.916 38.4766ZM86.1934 15.168C86.1934 17.7461 85.6191 20.0312 84.4707 22.0234C83.3223 24.0156 81.752 25.5742 79.7598 26.6992C77.7676 27.8242 75.4824 28.3867 72.9043 28.3867C70.3027 28.3867 67.9941 27.8242 65.9785 26.6992C63.9629 25.5742 62.3809 24.0156 61.2324 22.0234C60.1074 20.0312 59.5449 17.7461 59.5449 15.168C59.5449 12.1445 60.1074 9.57812 61.2324 7.46875C62.3809 5.35938 63.9629 3.75391 65.9785 2.65234C67.9941 1.55078 70.3027 1 72.9043 1C75.5059 1 77.8027 1.55078 79.7949 2.65234C81.7871 3.75391 83.3457 5.35938 84.4707 7.46875C85.6191 9.57812 86.1934 12.1445 86.1934 15.168ZM78.002 15.4844C78.002 13.9844 77.8027 12.6719 77.4043 11.5469C77.0059 10.3984 76.4199 9.50781 75.6465 8.875C74.8965 8.21875 73.9824 7.89062 72.9043 7.89062C71.8262 7.89062 70.9004 8.19531 70.127 8.80469C69.3535 9.41406 68.7559 10.293 68.334 11.4414C67.9355 12.5664 67.7363 13.9141 67.7363 15.4844C67.7363 17.0312 67.9355 18.3789 68.334 19.5273C68.7559 20.6758 69.3535 21.5781 70.127 22.2344C70.9004 22.8672 71.8262 23.1836 72.9043 23.1836C73.9824 23.1836 74.8965 22.8672 75.6465 22.2344C76.4199 21.5781 77.0059 20.6758 77.4043 19.5273C77.8027 18.3789 78.002 17.0312 78.002 15.4844Z"/>
</mask>
<path d="M32.5098 34.5391H33.5098V33.5391H32.5098V34.5391ZM32.5098 41.4297V42.4297H33.5098V41.4297H32.5098ZM1.2207 41.4297L0.221513 41.4699L0.260161 42.4297H1.2207V41.4297ZM1.00977 36.1914L0.12473 35.7259L-0.00022459 35.9634L0.0105754 36.2316L1.00977 36.1914ZM19.1504 1.70312V0.703125H18.5465L18.2654 1.2376L19.1504 1.70312ZM25.6543 1.70312L26.5433 2.16102L27.2942 0.703125H25.6543V1.70312ZM19.0449 14.5352L18.1559 14.0773L18.1501 14.0886L18.1446 14.1L19.0449 14.5352ZM9.37695 34.5391L8.47659 34.1039L7.78298 35.5391H9.37695V34.5391ZM27.5527 1.70312H28.5527V0.703125H27.5527V1.70312ZM27.5527 52.8906V53.8906H28.5527V52.8906H27.5527ZM19.3262 52.8906H18.3262V53.8906H19.3262V52.8906ZM19.3262 1.70312V0.703125H18.3262V1.70312H19.3262ZM32.5098 34.5391H31.5098V41.4297H32.5098H33.5098V34.5391H32.5098ZM32.5098 41.4297V40.4297H1.2207V41.4297V42.4297H32.5098V41.4297ZM1.2207 41.4297L2.21989 41.3895L2.00896 36.1512L1.00977 36.1914L0.0105754 36.2316L0.221513 41.4699L1.2207 41.4297ZM1.00977 36.1914L1.8948 36.6569L20.0354 2.16865L19.1504 1.70312L18.2654 1.2376L0.12473 35.7259L1.00977 36.1914ZM19.1504 1.70312V2.70312H25.6543V1.70312V0.703125H19.1504V1.70312ZM25.6543 1.70312L24.7653 1.24523L18.1559 14.0773L19.0449 14.5352L19.9339 14.9931L26.5433 2.16102L25.6543 1.70312ZM19.0449 14.5352L18.1446 14.1L8.47659 34.1039L9.37695 34.5391L10.2773 34.9742L19.9453 14.9703L19.0449 14.5352ZM9.37695 34.5391V35.5391H32.5098V34.5391V33.5391H9.37695V34.5391ZM27.5527 1.70312H26.5527V52.8906H27.5527H28.5527V1.70312H27.5527ZM27.5527 52.8906V51.8906H19.3262V52.8906V53.8906H27.5527V52.8906ZM19.3262 52.8906H20.3262V1.70312H19.3262H18.3262V52.8906H19.3262ZM19.3262 1.70312V2.70312H27.5527V1.70312V0.703125H19.3262V1.70312ZM40.877 45.1914L40.1607 44.4935L40.1515 44.5031L40.877 45.1914ZM48.1543 45.1914L47.4288 45.8797L47.4381 45.8893L48.1543 45.1914ZM48.1543 51.9414L47.438 51.2435L47.4288 51.2531L48.1543 51.9414ZM40.877 51.9414L40.1514 52.6297L40.1607 52.6393L40.877 51.9414ZM39.5762 48.6016H40.5762C40.5762 47.4762 40.9262 46.5925 41.6024 45.8797L40.877 45.1914L40.1515 44.5031C39.0934 45.6185 38.5762 47.0082 38.5762 48.6016H39.5762ZM40.877 45.1914L41.5932 45.8893C42.2567 45.2083 43.1948 44.8203 44.5332 44.8203V43.8203V42.8203C42.7779 42.8203 41.2784 43.3464 40.1607 44.4935L40.877 45.1914ZM44.5332 43.8203V44.8203C45.8727 44.8203 46.7921 45.2085 47.4288 45.8797L48.1543 45.1914L48.8798 44.5031C47.7822 43.3462 46.2875 42.8203 44.5332 42.8203V43.8203ZM48.1543 45.1914L47.4381 45.8893C48.1341 46.6036 48.4902 47.4841 48.4902 48.6016H49.4902H50.4902C50.4902 47.0002 49.9558 45.6074 48.8705 44.4935L48.1543 45.1914ZM49.4902 48.6016H48.4902C48.4902 49.6616 48.1411 50.522 47.4381 51.2435L48.1543 51.9414L48.8705 52.6393C49.9488 51.5326 50.4902 50.1665 50.4902 48.6016H49.4902ZM48.1543 51.9414L47.4288 51.2531C46.7921 51.9243 45.8727 52.3125 44.5332 52.3125V53.3125V54.3125C46.2875 54.3125 47.7822 53.7866 48.8798 52.6297L48.1543 51.9414ZM44.5332 53.3125V52.3125C43.1948 52.3125 42.2567 51.9245 41.5932 51.2435L40.877 51.9414L40.1607 52.6393C41.2784 53.7864 42.7779 54.3125 44.5332 54.3125V53.3125ZM40.877 51.9414L41.6024 51.2531C40.9195 50.5333 40.5762 49.6698 40.5762 48.6016H39.5762H38.5762C38.5762 50.1584 39.1001 51.5214 40.1515 52.6297L40.877 51.9414ZM85.209 46.9844L84.3401 46.4892L84.3362 46.4963L85.209 46.9844ZM80.1465 51.9414L80.6054 52.8299L80.609 52.828L80.1465 51.9414ZM65.5918 51.9414L65.1252 52.826L65.1369 52.8319L65.5918 51.9414ZM60.4941 46.9844L59.6253 47.4795L59.6294 47.4865L60.4941 46.9844ZM59.6504 33.168L58.7254 32.7878L58.721 32.7988L59.6504 33.168ZM62.6035 28.7031L61.9029 27.9895L61.8964 27.996L62.6035 28.7031ZM78.1426 34.0117L77.2106 34.3742L77.2135 34.3816L77.2165 34.389L78.1426 34.0117ZM76.0332 31.0938L75.4136 31.8786L75.4249 31.8876L75.4365 31.8962L76.0332 31.0938ZM69.6348 31.0938L70.2414 31.8887L70.248 31.8837L70.2544 31.8786L69.6348 31.0938ZM67.5254 42.9062L66.5898 43.2593L66.5938 43.2701L66.5982 43.2807L67.5254 42.9062ZM69.5996 45.7188L69.0064 46.5239L69.0164 46.5311L69.5996 45.7188ZM76.1387 45.7188L75.5554 44.9064L75.5455 44.9137L76.1387 45.7188ZM78.2129 42.9062L79.1463 43.2652L79.1485 43.2593L78.2129 42.9062ZM61.2324 22.0234L60.3616 22.5152L60.3661 22.5229L61.2324 22.0234ZM61.2324 7.46875L60.3541 6.99056L60.3501 6.99816L61.2324 7.46875ZM84.4707 7.46875L83.5883 7.93936L83.5924 7.94692L84.4707 7.46875ZM77.4043 11.5469L76.4595 11.8747L76.4617 11.8807L77.4043 11.5469ZM75.6465 8.875L74.988 9.62758L75.0004 9.63848L75.0132 9.64896L75.6465 8.875ZM68.334 11.4414L67.3952 11.0966L67.3914 11.1076L68.334 11.4414ZM68.334 19.5273L67.3892 19.8551L67.3922 19.8637L67.3953 19.8722L68.334 19.5273ZM70.127 22.2344L69.48 22.9969L69.4868 23.0027L69.4937 23.0083L70.127 22.2344ZM75.6465 22.2344L76.2914 22.9987L76.2935 22.9969L75.6465 22.2344ZM87.0723 38.9336H86.0723C86.0723 41.9936 85.4761 44.496 84.3402 46.4892L85.209 46.9844L86.0778 47.4795C87.4262 45.1134 88.0723 42.2486 88.0723 38.9336H87.0723ZM85.209 46.9844L84.3362 46.4963C83.2097 48.5109 81.6627 50.0224 79.6839 51.0548L80.1465 51.9414L80.609 52.828C82.9428 51.6104 84.7707 49.8172 86.0818 47.4724L85.209 46.9844ZM80.1465 51.9414L79.6876 51.0529C77.7133 52.0726 75.4598 52.5938 72.9043 52.5938V53.5938V54.5938C75.7394 54.5938 78.3141 54.0133 80.6054 52.8299L80.1465 51.9414ZM72.9043 53.5938V52.5938C70.3241 52.5938 68.0456 52.0721 66.0467 51.0509L65.5918 51.9414L65.1369 52.8319C67.4505 54.0139 70.047 54.5938 72.9043 54.5938V53.5938ZM65.5918 51.9414L66.0583 51.0569C64.0992 50.0235 62.5348 48.5073 61.3589 46.4822L60.4941 46.9844L59.6294 47.4865C60.9847 49.8208 62.8187 51.6093 65.1253 52.8259L65.5918 51.9414ZM60.4941 46.9844L61.363 46.4892C60.227 44.496 59.6309 41.9936 59.6309 38.9336H58.6309H57.6309C57.6309 42.2486 58.2769 45.1134 59.6253 47.4795L60.4941 46.9844ZM58.6309 38.9336H59.6309C59.6309 36.9074 59.9535 35.1135 60.5797 33.5372L59.6504 33.168L58.721 32.7988C57.9879 34.6443 57.6309 36.6941 57.6309 38.9336H58.6309ZM59.6504 33.168L60.5753 33.5481C61.2299 31.9553 62.1417 30.5792 63.3106 29.4102L62.6035 28.7031L61.8964 27.996C60.5341 29.3583 59.4771 30.9588 58.7254 32.7879L59.6504 33.168ZM62.6035 28.7031L63.3041 29.4167C64.494 28.2484 65.8906 27.3483 67.5035 26.7162L67.1387 25.7852L66.7738 24.8541C64.918 25.5814 63.2911 26.6266 61.9029 27.9896L62.6035 28.7031ZM67.1387 25.7852L67.5035 26.7162C69.1098 26.0867 70.883 25.7656 72.834 25.7656V24.7656V23.7656C70.66 23.7656 68.6363 24.1242 66.7738 24.8541L67.1387 25.7852ZM72.834 24.7656V25.7656C75.426 25.7656 77.705 26.3291 79.6968 27.4332L80.1816 26.5586L80.6665 25.684C78.3457 24.3975 75.7264 23.7656 72.834 23.7656V24.7656ZM80.1816 26.5586L79.6968 27.4332C81.6965 28.5417 83.2514 30.0655 84.3783 32.0159L85.2441 31.5156L86.11 31.0153C84.7994 28.747 82.9793 26.9661 80.6665 25.684L80.1816 26.5586ZM85.2441 31.5156L84.3783 32.0159C85.4957 33.9498 86.0723 36.2442 86.0723 38.9336H87.0723H88.0723C88.0723 35.9511 87.4301 33.3002 86.11 31.0153L85.2441 31.5156ZM78.916 38.4766H79.916C79.916 36.6677 79.6437 35.0459 79.0687 33.6344L78.1426 34.0117L77.2165 34.389C77.6727 35.5088 77.916 36.8636 77.916 38.4766H78.916ZM78.1426 34.0117L79.0746 33.6493C78.5275 32.2424 77.7217 31.1032 76.6299 30.2913L76.0332 31.0938L75.4365 31.8962C76.1728 32.4437 76.7733 33.2498 77.2106 34.3742L78.1426 34.0117ZM76.0332 31.0938L76.6528 30.3089C75.5687 29.453 74.2784 29.0391 72.834 29.0391V30.0391V31.0391C73.874 31.0391 74.7164 31.3283 75.4136 31.8786L76.0332 31.0938ZM72.834 30.0391V29.0391C71.3896 29.0391 70.0992 29.453 69.0151 30.3089L69.6348 31.0938L70.2544 31.8786C70.9516 31.3283 71.794 31.0391 72.834 31.0391V30.0391ZM69.6348 31.0938L69.0281 30.2988C67.9631 31.1116 67.1732 32.2488 66.6285 33.6493L67.5605 34.0117L68.4926 34.3742C68.9323 33.2434 69.5252 32.4353 70.2414 31.8887L69.6348 31.0938ZM67.5605 34.0117L66.6285 33.6493C66.0814 35.0562 65.8223 36.6726 65.8223 38.4766H66.8223H67.8223C67.8223 36.8587 68.0553 35.4985 68.4926 34.3742L67.5605 34.0117ZM66.8223 38.4766H65.8223C65.8223 40.275 66.0681 41.877 66.5898 43.2593L67.5254 42.9062L68.461 42.5532C68.0451 41.4512 67.8223 40.1 67.8223 38.4766H66.8223ZM67.5254 42.9062L66.5982 43.2807C67.1465 44.6385 67.9407 45.7386 69.0064 46.5238L69.5996 45.7188L70.1928 44.9137C69.4772 44.3864 68.8887 43.6115 68.4526 42.5318L67.5254 42.9062ZM69.5996 45.7188L69.0164 46.5311C70.1244 47.3266 71.4376 47.7031 72.9043 47.7031V46.7031V45.7031C71.7929 45.7031 70.9029 45.4234 70.1828 44.9064L69.5996 45.7188ZM72.9043 46.7031V47.7031C74.3514 47.7031 75.6453 47.3244 76.7319 46.5238L76.1387 45.7188L75.5455 44.9137C74.8508 45.4256 73.9885 45.7031 72.9043 45.7031V46.7031ZM76.1387 45.7188L76.7219 46.5311C77.8185 45.7437 78.619 44.6361 79.1462 43.2652L78.2129 42.9062L77.2795 42.5473C76.8693 43.6139 76.2869 44.3813 75.5555 44.9064L76.1387 45.7188ZM78.2129 42.9062L79.1485 43.2593C79.6701 41.877 79.916 40.275 79.916 38.4766H78.916H77.916C77.916 40.1 77.6931 41.4512 77.2773 42.5532L78.2129 42.9062ZM86.1934 15.168H85.1934C85.1934 17.5925 84.655 19.7015 83.6043 21.524L84.4707 22.0234L85.3371 22.5229C86.5833 20.361 87.1934 17.8997 87.1934 15.168H86.1934ZM84.4707 22.0234L83.6043 21.524C82.5448 23.362 81.1035 24.792 79.268 25.8285L79.7598 26.6992L80.2515 27.57C82.4004 26.3565 84.0997 24.6693 85.3371 22.5229L84.4707 22.0234ZM79.7598 26.6992L79.268 25.8285C77.4442 26.8584 75.3324 27.3867 72.9043 27.3867V28.3867V29.3867C75.6325 29.3867 78.091 28.79 80.2515 27.57L79.7598 26.6992ZM72.9043 28.3867V27.3867C70.4513 27.3867 68.3144 26.8577 66.4659 25.826L65.9785 26.6992L65.4911 27.5724C67.6739 28.7907 70.1542 29.3867 72.9043 29.3867V28.3867ZM65.9785 26.6992L66.4659 25.826C64.6074 24.7887 63.1566 23.359 62.0988 21.524L61.2324 22.0234L60.3661 22.5229C61.6051 24.6722 63.3184 26.3597 65.4911 27.5724L65.9785 26.6992ZM61.2324 22.0234L62.1032 21.5317C61.0732 19.7078 60.5449 17.596 60.5449 15.168H59.5449H58.5449C58.5449 17.8961 59.1416 20.3547 60.3617 22.5152L61.2324 22.0234ZM59.5449 15.168H60.5449C60.5449 12.2662 61.0848 9.87053 62.1148 7.93934L61.2324 7.46875L60.3501 6.99816C59.13 9.28572 58.5449 12.0229 58.5449 15.168H59.5449ZM61.2324 7.46875L62.1107 7.94692C63.1717 5.99808 64.6188 4.53501 66.4581 3.52985L65.9785 2.65234L65.4989 1.77484C63.3069 2.9728 61.59 4.72067 60.3542 6.99058L61.2324 7.46875ZM65.9785 2.65234L66.4581 3.52985C68.3081 2.51881 70.4478 2 72.9043 2V1V0C70.1577 0 67.6802 0.582749 65.4989 1.77484L65.9785 2.65234ZM72.9043 1V2C75.3611 2 77.487 2.51889 79.311 3.52747L79.7949 2.65234L80.2788 1.77722C78.1185 0.58267 75.6507 0 72.9043 0V1ZM79.7949 2.65234L79.311 3.52747C81.1254 4.53071 82.5495 5.99148 83.5883 7.93934L84.4707 7.46875L85.3531 6.99816C84.1419 4.72727 82.4488 2.97711 80.2788 1.77722L79.7949 2.65234ZM84.4707 7.46875L83.5924 7.94692C84.6429 9.87635 85.1934 12.2692 85.1934 15.168H86.1934H87.1934C87.1934 12.0199 86.5954 9.2799 85.349 6.99058L84.4707 7.46875ZM78.002 15.4844H79.002C79.002 13.8986 78.7917 12.4688 78.3469 11.213L77.4043 11.5469L76.4617 11.8807C76.8138 12.875 77.002 14.0702 77.002 15.4844H78.002ZM77.4043 11.5469L78.3491 11.2191C77.9032 9.93389 77.2244 8.87396 76.2797 8.10104L75.6465 8.875L75.0132 9.64896C75.6154 10.1417 76.1086 10.863 76.4595 11.8746L77.4043 11.5469ZM75.6465 8.875L76.305 8.12242C75.3572 7.29309 74.2032 6.89062 72.9043 6.89062V7.89062V8.89062C73.7616 8.89062 74.4358 9.14441 74.988 9.62758L75.6465 8.875ZM72.9043 7.89062V6.89062C71.6243 6.89062 70.4749 7.25747 69.5081 8.0192L70.127 8.80469L70.7458 9.59018C71.3259 9.13316 72.028 8.89062 72.9043 8.89062V7.89062ZM70.127 8.80469L69.5081 8.0192C68.5578 8.76787 67.8656 9.81644 67.3953 11.0966L68.334 11.4414L69.2727 11.7862C69.6461 10.7695 70.1492 10.0603 70.7458 9.59018L70.127 8.80469ZM68.334 11.4414L67.3914 11.1076C66.9451 12.3676 66.7363 13.8342 66.7363 15.4844H67.7363H68.7363C68.7363 13.9939 68.926 12.7652 69.2766 11.7753L68.334 11.4414ZM67.7363 15.4844H66.7363C66.7363 17.1139 66.9458 18.577 67.3892 19.8551L68.334 19.5273L69.2787 19.1996C68.9253 18.1808 68.7363 16.9486 68.7363 15.4844H67.7363ZM68.334 19.5273L67.3953 19.8722C67.8645 21.1493 68.5502 22.208 69.48 22.9969L70.127 22.2344L70.7739 21.4719C70.1568 20.9483 69.6472 20.2022 69.2727 19.1825L68.334 19.5273ZM70.127 22.2344L69.4937 23.0083C70.4604 23.7992 71.6149 24.1836 72.9043 24.1836V23.1836V22.1836C72.0375 22.1836 71.3404 21.9351 70.7602 21.4604L70.127 22.2344ZM72.9043 23.1836V24.1836C74.1935 24.1836 75.3428 23.7991 76.2914 22.9987L75.6465 22.2344L75.0016 21.4701C74.4502 21.9353 73.7713 22.1836 72.9043 22.1836V23.1836ZM75.6465 22.2344L76.2935 22.9969C77.228 22.2039 77.9037 21.1389 78.3491 19.8551L77.4043 19.5273L76.4595 19.1996C76.108 20.2127 75.6118 20.9523 74.9995 21.4719L75.6465 22.2344ZM77.4043 19.5273L78.3491 19.8551C78.7925 18.577 79.002 17.1139 79.002 15.4844H78.002H77.002C77.002 16.9486 76.813 18.1808 76.4595 19.1996L77.4043 19.5273Z" fill="url(#paint0_linear_528_10905)" mask="url(#path-1-outside-1_528_10905)"/>
<defs>
<linearGradient id="paint0_linear_528_10905" x1="45.3301" y1="-8.10938" x2="45.3301" y2="63.8906" gradientUnits="userSpaceOnUse">
<stop stop-color="white"/>
<stop offset="1" stop-color="#666666" stop-opacity="0.2"/>
</linearGradient>
</defs>
</svg>
