<svg width="89" height="55" viewBox="0 0 89 55" fill="none" xmlns="http://www.w3.org/2000/svg">
<mask id="path-1-outside-1_3860_11932" maskUnits="userSpaceOnUse" x="-0.167969" y="-0.109375" width="89" height="55" fill="black">
<rect fill="white" x="-0.167969" y="-0.109375" width="89" height="55"/>
<path d="M32.5117 34.5391V41.4297H1.22266L1.01172 36.1914L19.1523 1.70312H25.6562L19.0469 14.5352L9.37891 34.5391H32.5117ZM27.5547 1.70312V52.8906H19.3281V1.70312H27.5547ZM39.5781 48.6016C39.5781 47.2422 40.0117 46.1055 40.8789 45.1914C41.7695 44.2773 42.9883 43.8203 44.5352 43.8203C46.082 43.8203 47.2891 44.2773 48.1562 45.1914C49.0469 46.1055 49.4922 47.2422 49.4922 48.6016C49.4922 49.9141 49.0469 51.0273 48.1562 51.9414C47.2891 52.8555 46.082 53.3125 44.5352 53.3125C42.9883 53.3125 41.7695 52.8555 40.8789 51.9414C40.0117 51.0273 39.5781 49.9141 39.5781 48.6016ZM87.0742 38.9336C87.0742 42.1211 86.4531 44.8047 85.2109 46.9844C83.9922 49.1641 82.3047 50.8164 80.1484 51.9414C78.0156 53.043 75.6016 53.5938 72.9062 53.5938C70.1875 53.5938 67.75 53.043 65.5938 51.9414C63.4609 50.8164 61.7617 49.1641 60.4961 46.9844C59.2539 44.8047 58.6328 42.1211 58.6328 38.9336C58.6328 36.8008 58.9727 34.8789 59.6523 33.168C60.3555 31.457 61.3398 29.9688 62.6055 28.7031C63.8945 27.4375 65.4062 26.4648 67.1406 25.7852C68.875 25.1055 70.7734 24.7656 72.8359 24.7656C75.5781 24.7656 78.0273 25.3633 80.1836 26.5586C82.3398 27.7539 84.0273 29.4062 85.2461 31.5156C86.4648 33.625 87.0742 36.0977 87.0742 38.9336ZM78.918 38.4766C78.918 36.7656 78.6602 35.2773 78.1445 34.0117C77.6523 32.7461 76.9492 31.7734 76.0352 31.0938C75.1445 30.3906 74.0781 30.0391 72.8359 30.0391C71.5938 30.0391 70.5273 30.3906 69.6367 31.0938C68.7461 31.7734 68.0547 32.7461 67.5625 34.0117C67.0703 35.2773 66.8242 36.7656 66.8242 38.4766C66.8242 40.1875 67.0586 41.6641 67.5273 42.9062C68.0195 44.125 68.7109 45.0625 69.6016 45.7188C70.5156 46.375 71.6172 46.7031 72.9062 46.7031C74.1719 46.7031 75.25 46.375 76.1406 45.7188C77.0547 45.0625 77.7461 44.125 78.2148 42.9062C78.6836 41.6641 78.918 40.1875 78.918 38.4766ZM86.1953 15.168C86.1953 17.7461 85.6211 20.0312 84.4727 22.0234C83.3242 24.0156 81.7539 25.5742 79.7617 26.6992C77.7695 27.8242 75.4844 28.3867 72.9062 28.3867C70.3047 28.3867 67.9961 27.8242 65.9805 26.6992C63.9648 25.5742 62.3828 24.0156 61.2344 22.0234C60.1094 20.0312 59.5469 17.7461 59.5469 15.168C59.5469 12.1445 60.1094 9.57812 61.2344 7.46875C62.3828 5.35938 63.9648 3.75391 65.9805 2.65234C67.9961 1.55078 70.3047 1 72.9062 1C75.5078 1 77.8047 1.55078 79.7969 2.65234C81.7891 3.75391 83.3477 5.35938 84.4727 7.46875C85.6211 9.57812 86.1953 12.1445 86.1953 15.168ZM78.0039 15.4844C78.0039 13.9844 77.8047 12.6719 77.4062 11.5469C77.0078 10.3984 76.4219 9.50781 75.6484 8.875C74.8984 8.21875 73.9844 7.89062 72.9062 7.89062C71.8281 7.89062 70.9023 8.19531 70.1289 8.80469C69.3555 9.41406 68.7578 10.293 68.3359 11.4414C67.9375 12.5664 67.7383 13.9141 67.7383 15.4844C67.7383 17.0312 67.9375 18.3789 68.3359 19.5273C68.7578 20.6758 69.3555 21.5781 70.1289 22.2344C70.9023 22.8672 71.8281 23.1836 72.9062 23.1836C73.9844 23.1836 74.8984 22.8672 75.6484 22.2344C76.4219 21.5781 77.0078 20.6758 77.4062 19.5273C77.8047 18.3789 78.0039 17.0312 78.0039 15.4844Z"/>
</mask>
<path d="M32.5117 34.5391H33.5117V33.5391H32.5117V34.5391ZM32.5117 41.4297V42.4297H33.5117V41.4297H32.5117ZM1.22266 41.4297L0.223466 41.4699L0.262114 42.4297H1.22266V41.4297ZM1.01172 36.1914L0.126683 35.7259L0.00172853 35.9634L0.0125285 36.2316L1.01172 36.1914ZM19.1523 1.70312V0.703125H18.5484L18.2673 1.2376L19.1523 1.70312ZM25.6562 1.70312L26.5453 2.16102L27.2962 0.703125H25.6562V1.70312ZM19.0469 14.5352L18.1579 14.0773L18.152 14.0886L18.1465 14.1L19.0469 14.5352ZM9.37891 34.5391L8.47855 34.1039L7.78493 35.5391H9.37891V34.5391ZM27.5547 1.70312H28.5547V0.703125H27.5547V1.70312ZM27.5547 52.8906V53.8906H28.5547V52.8906H27.5547ZM19.3281 52.8906H18.3281V53.8906H19.3281V52.8906ZM19.3281 1.70312V0.703125H18.3281V1.70312H19.3281ZM32.5117 34.5391H31.5117V41.4297H32.5117H33.5117V34.5391H32.5117ZM32.5117 41.4297V40.4297H1.22266V41.4297V42.4297H32.5117V41.4297ZM1.22266 41.4297L2.22185 41.3895L2.01091 36.1512L1.01172 36.1914L0.0125285 36.2316L0.223466 41.4699L1.22266 41.4297ZM1.01172 36.1914L1.89675 36.6569L20.0374 2.16865L19.1523 1.70312L18.2673 1.2376L0.126683 35.7259L1.01172 36.1914ZM19.1523 1.70312V2.70312H25.6562V1.70312V0.703125H19.1523V1.70312ZM25.6562 1.70312L24.7672 1.24523L18.1579 14.0773L19.0469 14.5352L19.9359 14.9931L26.5453 2.16102L25.6562 1.70312ZM19.0469 14.5352L18.1465 14.1L8.47855 34.1039L9.37891 34.5391L10.2793 34.9742L19.9472 14.9703L19.0469 14.5352ZM9.37891 34.5391V35.5391H32.5117V34.5391V33.5391H9.37891V34.5391ZM27.5547 1.70312H26.5547V52.8906H27.5547H28.5547V1.70312H27.5547ZM27.5547 52.8906V51.8906H19.3281V52.8906V53.8906H27.5547V52.8906ZM19.3281 52.8906H20.3281V1.70312H19.3281H18.3281V52.8906H19.3281ZM19.3281 1.70312V2.70312H27.5547V1.70312V0.703125H19.3281V1.70312ZM40.8789 45.1914L40.1626 44.4935L40.1534 44.5031L40.8789 45.1914ZM48.1562 45.1914L47.4307 45.8797L47.44 45.8893L48.1562 45.1914ZM48.1562 51.9414L47.44 51.2435L47.4308 51.2531L48.1562 51.9414ZM40.8789 51.9414L40.1534 52.6297L40.1627 52.6393L40.8789 51.9414ZM39.5781 48.6016H40.5781C40.5781 47.4762 40.9281 46.5925 41.6044 45.8797L40.8789 45.1914L40.1534 44.5031C39.0953 45.6185 38.5781 47.0082 38.5781 48.6016H39.5781ZM40.8789 45.1914L41.5951 45.8893C42.2587 45.2083 43.1967 44.8203 44.5352 44.8203V43.8203V42.8203C42.7798 42.8203 41.2804 43.3464 40.1627 44.4935L40.8789 45.1914ZM44.5352 43.8203V44.8203C45.8746 44.8203 46.794 45.2085 47.4308 45.8797L48.1562 45.1914L48.8817 44.5031C47.7841 43.3462 46.2894 42.8203 44.5352 42.8203V43.8203ZM48.1562 45.1914L47.44 45.8893C48.136 46.6036 48.4922 47.4841 48.4922 48.6016H49.4922H50.4922C50.4922 47.0002 49.9577 45.6074 48.8725 44.4935L48.1562 45.1914ZM49.4922 48.6016H48.4922C48.4922 49.6616 48.143 50.522 47.44 51.2435L48.1562 51.9414L48.8725 52.6393C49.9507 51.5326 50.4922 50.1665 50.4922 48.6016H49.4922ZM48.1562 51.9414L47.4308 51.2531C46.794 51.9243 45.8746 52.3125 44.5352 52.3125V53.3125V54.3125C46.2894 54.3125 47.7841 53.7866 48.8817 52.6297L48.1562 51.9414ZM44.5352 53.3125V52.3125C43.1967 52.3125 42.2587 51.9245 41.5951 51.2435L40.8789 51.9414L40.1627 52.6393C41.2804 53.7864 42.7798 54.3125 44.5352 54.3125V53.3125ZM40.8789 51.9414L41.6044 51.2531C40.9214 50.5333 40.5781 49.6698 40.5781 48.6016H39.5781H38.5781C38.5781 50.1584 39.102 51.5214 40.1534 52.6297L40.8789 51.9414ZM85.2109 46.9844L84.3421 46.4892L84.3381 46.4963L85.2109 46.9844ZM80.1484 51.9414L80.6073 52.8299L80.611 52.828L80.1484 51.9414ZM65.5938 51.9414L65.1272 52.826L65.1388 52.8319L65.5938 51.9414ZM60.4961 46.9844L59.6272 47.4795L59.6313 47.4865L60.4961 46.9844ZM59.6523 33.168L58.7273 32.7878L58.723 32.7988L59.6523 33.168ZM62.6055 28.7031L61.9049 27.9895L61.8984 27.996L62.6055 28.7031ZM78.1445 34.0117L77.2125 34.3742L77.2154 34.3816L77.2184 34.389L78.1445 34.0117ZM76.0352 31.0938L75.4155 31.8786L75.4269 31.8876L75.4385 31.8962L76.0352 31.0938ZM69.6367 31.0938L70.2434 31.8887L70.2499 31.8837L70.2564 31.8786L69.6367 31.0938ZM67.5273 42.9062L66.5917 43.2593L66.5958 43.2701L66.6001 43.2807L67.5273 42.9062ZM69.6016 45.7188L69.0083 46.5239L69.0184 46.5311L69.6016 45.7188ZM76.1406 45.7188L75.5574 44.9064L75.5474 44.9137L76.1406 45.7188ZM78.2148 42.9062L79.1482 43.2652L79.1504 43.2593L78.2148 42.9062ZM61.2344 22.0234L60.3636 22.5152L60.368 22.5229L61.2344 22.0234ZM61.2344 7.46875L60.3561 6.99056L60.352 6.99816L61.2344 7.46875ZM84.4727 7.46875L83.5903 7.93936L83.5944 7.94692L84.4727 7.46875ZM77.4062 11.5469L76.4615 11.8747L76.4636 11.8807L77.4062 11.5469ZM75.6484 8.875L74.9899 9.62758L75.0024 9.63848L75.0152 9.64896L75.6484 8.875ZM68.3359 11.4414L67.3972 11.0966L67.3933 11.1076L68.3359 11.4414ZM68.3359 19.5273L67.3912 19.8551L67.3941 19.8637L67.3973 19.8722L68.3359 19.5273ZM70.1289 22.2344L69.4819 22.9969L69.4887 23.0027L69.4957 23.0083L70.1289 22.2344ZM75.6484 22.2344L76.2933 22.9987L76.2954 22.9969L75.6484 22.2344ZM87.0742 38.9336H86.0742C86.0742 41.9936 85.4781 44.496 84.3421 46.4892L85.2109 46.9844L86.0798 47.4795C87.4282 45.1134 88.0742 42.2486 88.0742 38.9336H87.0742ZM85.2109 46.9844L84.3381 46.4963C83.2117 48.5109 81.6646 50.0224 79.6859 51.0548L80.1484 51.9414L80.611 52.828C82.9447 51.6104 84.7727 49.8172 86.0838 47.4724L85.2109 46.9844ZM80.1484 51.9414L79.6895 51.0529C77.7152 52.0726 75.4617 52.5938 72.9062 52.5938V53.5938V54.5938C75.7414 54.5938 78.316 54.0133 80.6073 52.8299L80.1484 51.9414ZM72.9062 53.5938V52.5938C70.326 52.5938 68.0476 52.0721 66.0487 51.0509L65.5938 51.9414L65.1388 52.8319C67.4524 54.0139 70.049 54.5938 72.9062 54.5938V53.5938ZM65.5938 51.9414L66.0603 51.0569C64.1012 50.0235 62.5367 48.5073 61.3609 46.4822L60.4961 46.9844L59.6313 47.4865C60.9867 49.8208 62.8207 51.6093 65.1272 52.8259L65.5938 51.9414ZM60.4961 46.9844L61.3649 46.4892C60.229 44.496 59.6328 41.9936 59.6328 38.9336H58.6328H57.6328C57.6328 42.2486 58.2789 45.1134 59.6273 47.4795L60.4961 46.9844ZM58.6328 38.9336H59.6328C59.6328 36.9074 59.9555 35.1135 60.5817 33.5372L59.6523 33.168L58.723 32.7988C57.9898 34.6443 57.6328 36.6941 57.6328 38.9336H58.6328ZM59.6523 33.168L60.5773 33.5481C61.2319 31.9553 62.1436 30.5792 63.3126 29.4102L62.6055 28.7031L61.8984 27.996C60.5361 29.3583 59.4791 30.9588 58.7274 32.7879L59.6523 33.168ZM62.6055 28.7031L63.3061 29.4167C64.496 28.2484 65.8925 27.3483 67.5055 26.7162L67.1406 25.7852L66.7757 24.8541C64.92 25.5814 63.2931 26.6266 61.9049 27.9896L62.6055 28.7031ZM67.1406 25.7852L67.5055 26.7162C69.1118 26.0867 70.8849 25.7656 72.8359 25.7656V24.7656V23.7656C70.6619 23.7656 68.6382 24.1242 66.7757 24.8541L67.1406 25.7852ZM72.8359 24.7656V25.7656C75.4279 25.7656 77.707 26.3291 79.6988 27.4332L80.1836 26.5586L80.6684 25.684C78.3477 24.3975 75.7283 23.7656 72.8359 23.7656V24.7656ZM80.1836 26.5586L79.6988 27.4332C81.6984 28.5417 83.2533 30.0655 84.3802 32.0159L85.2461 31.5156L86.112 31.0153C84.8013 28.747 82.9813 26.9661 80.6684 25.684L80.1836 26.5586ZM85.2461 31.5156L84.3802 32.0159C85.4976 33.9498 86.0742 36.2442 86.0742 38.9336H87.0742H88.0742C88.0742 35.9511 87.4321 33.3002 86.112 31.0153L85.2461 31.5156ZM78.918 38.4766H79.918C79.918 36.6677 79.6457 35.0459 79.0706 33.6344L78.1445 34.0117L77.2184 34.389C77.6747 35.5088 77.918 36.8636 77.918 38.4766H78.918ZM78.1445 34.0117L79.0765 33.6493C78.5294 32.2424 77.7237 31.1032 76.6319 30.2913L76.0352 31.0938L75.4385 31.8962C76.1747 32.4437 76.7753 33.2498 77.2125 34.3742L78.1445 34.0117ZM76.0352 31.0938L76.6548 30.3089C75.5707 29.453 74.2803 29.0391 72.8359 29.0391V30.0391V31.0391C73.8759 31.0391 74.7184 31.3283 75.4155 31.8786L76.0352 31.0938ZM72.8359 30.0391V29.0391C71.3915 29.0391 70.1012 29.453 69.0171 30.3089L69.6367 31.0938L70.2564 31.8786C70.9535 31.3283 71.796 31.0391 72.8359 31.0391V30.0391ZM69.6367 31.0938L69.03 30.2988C67.965 31.1116 67.1751 32.2488 66.6305 33.6493L67.5625 34.0117L68.4945 34.3742C68.9342 33.2434 69.5271 32.4353 70.2434 31.8887L69.6367 31.0938ZM67.5625 34.0117L66.6305 33.6493C66.0834 35.0562 65.8242 36.6726 65.8242 38.4766H66.8242H67.8242C67.8242 36.8587 68.0573 35.4985 68.4945 34.3742L67.5625 34.0117ZM66.8242 38.4766H65.8242C65.8242 40.275 66.0701 41.877 66.5917 43.2593L67.5273 42.9062L68.4629 42.5532C68.0471 41.4512 67.8242 40.1 67.8242 38.4766H66.8242ZM67.5273 42.9062L66.6001 43.2807C67.1485 44.6385 67.9427 45.7386 69.0084 46.5238L69.6016 45.7188L70.1948 44.9137C69.4792 44.3864 68.8906 43.6115 68.4546 42.5318L67.5273 42.9062ZM69.6016 45.7188L69.0184 46.5311C70.1264 47.3266 71.4396 47.7031 72.9062 47.7031V46.7031V45.7031C71.7948 45.7031 70.9049 45.4234 70.1848 44.9064L69.6016 45.7188ZM72.9062 46.7031V47.7031C74.3533 47.7031 75.6472 47.3244 76.7338 46.5238L76.1406 45.7188L75.5474 44.9137C74.8528 45.4256 73.9904 45.7031 72.9062 45.7031V46.7031ZM76.1406 45.7188L76.7238 46.5311C77.8205 45.7437 78.6209 44.6361 79.1482 43.2652L78.2148 42.9062L77.2815 42.5473C76.8713 43.6139 76.2889 44.3813 75.5574 44.9064L76.1406 45.7188ZM78.2148 42.9062L79.1504 43.2593C79.6721 41.877 79.918 40.275 79.918 38.4766H78.918H77.918C77.918 40.1 77.6951 41.4512 77.2792 42.5532L78.2148 42.9062ZM86.1953 15.168H85.1953C85.1953 17.5925 84.6569 19.7015 83.6063 21.524L84.4727 22.0234L85.339 22.5229C86.5852 20.361 87.1953 17.8997 87.1953 15.168H86.1953ZM84.4727 22.0234L83.6063 21.524C82.5468 23.362 81.1055 24.792 79.27 25.8285L79.7617 26.6992L80.2534 27.57C82.4023 26.3565 84.1017 24.6693 85.339 22.5229L84.4727 22.0234ZM79.7617 26.6992L79.27 25.8285C77.4461 26.8584 75.3343 27.3867 72.9062 27.3867V28.3867V29.3867C75.6344 29.3867 78.093 28.79 80.2534 27.57L79.7617 26.6992ZM72.9062 28.3867V27.3867C70.4533 27.3867 68.3163 26.8577 66.4678 25.826L65.9805 26.6992L65.4931 27.5724C67.6758 28.7907 70.1561 29.3867 72.9062 29.3867V28.3867ZM65.9805 26.6992L66.4678 25.826C64.6094 24.7887 63.1586 23.359 62.1007 21.524L61.2344 22.0234L60.368 22.5229C61.6071 24.6722 63.3203 26.3597 65.4931 27.5724L65.9805 26.6992ZM61.2344 22.0234L62.1051 21.5317C61.0752 19.7078 60.5469 17.596 60.5469 15.168H59.5469H58.5469C58.5469 17.8961 59.1436 20.3547 60.3636 22.5152L61.2344 22.0234ZM59.5469 15.168H60.5469C60.5469 12.2662 61.0868 9.87053 62.1167 7.93934L61.2344 7.46875L60.352 6.99816C59.132 9.28572 58.5469 12.0229 58.5469 15.168H59.5469ZM61.2344 7.46875L62.1126 7.94692C63.1737 5.99808 64.6208 4.53501 66.46 3.52985L65.9805 2.65234L65.5009 1.77484C63.3089 2.9728 61.5919 4.72067 60.3561 6.99058L61.2344 7.46875ZM65.9805 2.65234L66.46 3.52985C68.31 2.51881 70.4498 2 72.9062 2V1V0C70.1596 0 67.6822 0.582749 65.5009 1.77484L65.9805 2.65234ZM72.9062 1V2C75.363 2 77.489 2.51889 79.313 3.52747L79.7969 2.65234L80.2808 1.77722C78.1204 0.58267 75.6526 0 72.9062 0V1ZM79.7969 2.65234L79.313 3.52747C81.1273 4.53071 82.5514 5.99148 83.5903 7.93934L84.4727 7.46875L85.355 6.99816C84.1439 4.72727 82.4508 2.97711 80.2808 1.77722L79.7969 2.65234ZM84.4727 7.46875L83.5944 7.94692C84.6449 9.87635 85.1953 12.2692 85.1953 15.168H86.1953H87.1953C87.1953 12.0199 86.5973 9.2799 85.3509 6.99058L84.4727 7.46875ZM78.0039 15.4844H79.0039C79.0039 13.8986 78.7936 12.4688 78.3489 11.213L77.4062 11.5469L76.4636 11.8807C76.8158 12.875 77.0039 14.0702 77.0039 15.4844H78.0039ZM77.4062 11.5469L78.351 11.2191C77.9051 9.93389 77.2263 8.87396 76.2817 8.10104L75.6484 8.875L75.0152 9.64896C75.6174 10.1417 76.1105 10.863 76.4615 11.8746L77.4062 11.5469ZM75.6484 8.875L76.3069 8.12242C75.3591 7.29309 74.2052 6.89062 72.9062 6.89062V7.89062V8.89062C73.7636 8.89062 74.4377 9.14441 74.9899 9.62758L75.6484 8.875ZM72.9062 7.89062V6.89062C71.6263 6.89062 70.4768 7.25747 69.51 8.0192L70.1289 8.80469L70.7478 9.59018C71.3278 9.13316 72.03 8.89062 72.9062 8.89062V7.89062ZM70.1289 8.80469L69.51 8.0192C68.5598 8.76787 67.8675 9.81644 67.3973 11.0966L68.3359 11.4414L69.2746 11.7862C69.6481 10.7695 70.1511 10.0603 70.7478 9.59018L70.1289 8.80469ZM68.3359 11.4414L67.3933 11.1076C66.947 12.3676 66.7383 13.8342 66.7383 15.4844H67.7383H68.7383C68.7383 13.9939 68.928 12.7652 69.2786 11.7753L68.3359 11.4414ZM67.7383 15.4844H66.7383C66.7383 17.1139 66.9478 18.577 67.3912 19.8551L68.3359 19.5273L69.2807 19.1996C68.9272 18.1808 68.7383 16.9486 68.7383 15.4844H67.7383ZM68.3359 19.5273L67.3973 19.8722C67.8664 21.1493 68.5522 22.208 69.4819 22.9969L70.1289 22.2344L70.7759 21.4719C70.1588 20.9483 69.6492 20.2022 69.2746 19.1825L68.3359 19.5273ZM70.1289 22.2344L69.4957 23.0083C70.4623 23.7992 71.6168 24.1836 72.9062 24.1836V23.1836V22.1836C72.0394 22.1836 71.3424 21.9351 70.7621 21.4604L70.1289 22.2344ZM72.9062 23.1836V24.1836C74.1954 24.1836 75.3447 23.7991 76.2933 22.9987L75.6484 22.2344L75.0036 21.4701C74.4522 21.9353 73.7733 22.1836 72.9062 22.1836V23.1836ZM75.6484 22.2344L76.2954 22.9969C77.23 22.2039 77.9056 21.1389 78.351 19.8551L77.4062 19.5273L76.4615 19.1996C76.11 20.2127 75.6138 20.9523 75.0015 21.4719L75.6484 22.2344ZM77.4062 19.5273L78.351 19.8551C78.7944 18.577 79.0039 17.1139 79.0039 15.4844H78.0039H77.0039C77.0039 16.9486 76.8149 18.1808 76.4615 19.1996L77.4062 19.5273Z" fill="url(#paint0_linear_3860_11932)" mask="url(#path-1-outside-1_3860_11932)"/>
<defs>
<linearGradient id="paint0_linear_3860_11932" x1="45.332" y1="-8.10938" x2="45.332" y2="63.8906" gradientUnits="userSpaceOnUse">
<stop stopColor="white"/>
<stop offset="1" stopColor="#666666" stop-opacity="0.2"/>
</linearGradient>
</defs>
</svg>
