<svg width="153" height="28" viewBox="0 0 153 28" fill="none" xmlns="http://www.w3.org/2000/svg">
<g clip-path="url(#clip0_3860_11958)">
<path d="M9.14954 14.2461L12.3142 15.7117L11.9088 19.3555L6.25187 25.7783C2.9682 23.6602 0.627494 20.2016 0 16.1742L9.14954 14.2461Z" fill="#828282"/>
<path d="M17.5924 18.1588L21.825 25.466C19.5548 27.0631 16.789 28.0008 13.8045 28.0008C12.8357 28.0008 11.8899 27.9019 10.9766 27.7138L11.9076 19.3577L14.3043 16.6367L17.5924 18.1588Z" fill="#828282"/>
<path d="M27.3181 10.418C27.6192 11.5613 27.7798 12.7618 27.7798 14C27.7798 16.8814 26.9108 19.5595 25.4215 21.7858L17.5944 18.1596L15.7578 14.9899L18.0649 12.3697L27.3181 10.418Z" fill="#828282"/>
<path d="M14.0644 0C18.2691 0.0765905 22.02 2.0139 24.5318 5.02489L18.0634 12.3686L14.6563 13.0871L12.9375 10.1202L14.0644 0Z" fill="#828282"/>
<path d="M12.9377 10.1217L12.5573 13.5304L9.15121 14.2486L0.359375 10.1758C1.46666 6.25985 4.23204 3.04206 7.84729 1.33203L12.9377 10.1217Z" fill="#828282"/>
<path d="M134.773 20.5369V13.834C134.773 10.0003 136.992 8.3125 139.884 8.3125C141.572 8.3125 142.994 8.9635 143.886 10.2173C144.778 8.9635 146.176 8.3125 147.888 8.3125C150.78 8.3125 152.999 10.0003 152.999 13.834V20.5369H149.382V13.834C149.382 12.2426 148.611 11.6881 147.526 11.6881C146.466 11.6881 145.694 12.2426 145.694 13.834V20.5369H142.078V13.834C142.078 12.2426 141.306 11.6881 140.246 11.6881C139.161 11.6881 138.39 12.2426 138.39 13.834V20.5369H134.773Z" fill="#828282"/>
<path d="M127.359 20.74C123.839 20.74 121.477 18.7146 121.477 14.6881V8.51562H125.093V14.6881C125.093 16.5688 126.009 17.3644 127.359 17.3644C128.709 17.3644 129.625 16.5688 129.625 14.6881V8.51562H133.241V14.6881C133.241 18.6905 130.879 20.74 127.359 20.74Z" fill="#828282"/>
<path d="M115.325 20.7371C112.263 20.7371 110.286 19.0975 110.238 16.8069H113.806C113.83 17.4338 114.288 17.7473 115.277 17.7473C116.386 17.7473 116.747 17.3615 116.747 16.8551C116.747 16.0595 115.879 15.9871 114.77 15.8184C113.131 15.5773 110.431 15.1674 110.431 12.2981C110.431 9.88699 112.336 8.19922 115.301 8.19922C118.266 8.19922 120.098 9.91114 120.171 12.0571H116.651C116.555 11.5024 116.072 11.189 115.349 11.189C114.457 11.189 114.095 11.6471 114.095 12.1294C114.095 12.8527 114.963 12.9491 116.073 13.1179C117.783 13.3591 120.412 13.8171 120.412 16.6381C120.412 19.0975 118.386 20.7371 115.325 20.7371Z" fill="#828282"/>
<path d="M96.8789 25.5111V14.5887C96.8789 10.5862 99.5784 8.19922 103.219 8.19922C107.003 8.19922 109.655 10.7791 109.655 14.6128C109.655 18.76 106.57 20.7371 103.87 20.7371C102.448 20.7371 101.242 20.1825 100.495 19.1216V25.5111H96.8789ZM103.243 17.3615C104.882 17.3615 105.991 16.1801 105.991 14.4681C105.991 12.7562 104.882 11.5748 103.243 11.5748C101.604 11.5748 100.495 12.7562 100.495 14.4681C100.495 16.1801 101.604 17.3615 103.243 17.3615Z" fill="#828282"/>
<path d="M93.1427 7.43016C91.8167 7.43016 90.8281 6.44158 90.8281 5.11546C90.8281 3.78934 91.8167 2.80078 93.1427 2.80078C94.468 2.80078 95.4565 3.78934 95.4565 5.11546C95.4565 6.44158 94.468 7.43016 93.1427 7.43016ZM91.3346 20.4261V8.51516H94.9507V20.4261H91.3346Z" fill="#828282"/>
<path d="M83.4869 20.7371C79.7262 20.7371 77.0742 18.0848 77.0742 14.4681C77.0742 10.8514 79.7262 8.19922 83.4869 8.19922C87.2477 8.19922 89.8997 10.8514 89.8997 14.4681C89.8997 18.0848 87.2477 20.7371 83.4869 20.7371ZM83.4869 17.3615C85.1266 17.3615 86.2354 16.1801 86.2354 14.4681C86.2354 12.7562 85.1266 11.5748 83.4869 11.5748C81.848 11.5748 80.7385 12.7562 80.7385 14.4681C80.7385 16.1801 81.848 17.3615 83.4869 17.3615Z" fill="#828282"/>
<path d="M70.0963 20.7371C66.3354 20.7371 63.6836 18.0848 63.6836 14.4681C63.6836 10.8514 66.3354 8.19922 70.0963 8.19922C73.857 8.19922 76.509 10.8514 76.509 14.4681C76.509 18.0848 73.857 20.7371 70.0963 20.7371ZM70.0963 17.3615C71.7352 17.3615 72.8447 16.1801 72.8447 14.4681C72.8447 12.7562 71.7352 11.5748 70.0963 11.5748C68.4568 11.5748 67.3479 12.7562 67.3479 14.4681C67.3479 16.1801 68.4568 17.3615 70.0963 17.3615Z" fill="#828282"/>
<path d="M56.7016 20.7371C52.9409 20.7371 50.2891 18.0848 50.2891 14.4681C50.2891 10.8514 52.9409 8.19922 56.7016 8.19922C60.4623 8.19922 63.1141 10.8514 63.1141 14.4681C63.1141 18.0848 60.4623 20.7371 56.7016 20.7371ZM56.7016 17.3615C58.3409 17.3615 59.4499 16.1801 59.4499 14.4681C59.4499 12.7562 58.3409 11.5748 56.7016 11.5748C55.0623 11.5748 53.9534 12.7562 53.9534 14.4681C53.9534 16.1801 55.0623 17.3615 56.7016 17.3615Z" fill="#828282"/>
<path d="M38.4258 20.425V4.65625H42.3312V16.8083H49.7803V20.425H38.4258Z" fill="#828282"/>
<path d="M76.0295 21.543C75.6648 24.8906 73.4159 26.6014 70.2008 26.6014C66.9833 26.6014 64.734 24.9091 64.3711 21.543H68.0395C68.3158 22.7144 69.1184 23.2257 70.2008 23.2257C71.2823 23.2257 72.085 22.7145 72.3617 21.543H76.0295Z" fill="#828282"/>
</g>
<defs>
<clipPath id="clip0_3860_11958">
<rect width="153" height="28" fill="white"/>
</clipPath>
</defs>
</svg>
