<svg width="48" height="48" viewBox="0 0 48 48" fill="none" xmlns="http://www.w3.org/2000/svg">
<path fill-rule="evenodd" clip-rule="evenodd" d="M23.9226 0.726562C28.2495 0.775937 32.1584 1.83935 35.6493 3.91681C39.0986 5.95279 41.9679 8.83964 43.9829 12.3013C46.0477 15.8133 47.1047 19.7459 47.1539 24.0991C47.0313 30.0553 45.1526 35.1425 41.518 39.3607C37.8833 43.5789 33.2281 46.1885 28.4091 47.1889V30.4895H32.9651L33.9954 23.927H27.0966V19.6287C27.0583 18.7377 27.3401 17.8623 27.8911 17.1609C28.4428 16.4576 29.4143 16.088 30.8057 16.052H34.9716V10.3034C34.9119 10.2841 34.3447 10.2081 33.2701 10.0752C32.0514 9.93264 30.8258 9.85647 29.5988 9.84708C26.8218 9.85989 24.6255 10.6432 23.01 12.1971C21.3944 13.7506 20.5692 15.9981 20.5342 18.9397V23.927H15.2842V30.4895H20.5342V47.1889C14.6172 46.1885 9.96199 43.5789 6.3273 39.3607C2.69261 35.1425 0.81405 30.0553 0.691406 24.0991C0.740475 19.7457 1.79746 15.8131 3.86237 12.3013C5.87732 8.83965 8.74664 5.9528 12.196 3.91681C15.6868 1.83975 19.5957 0.776337 23.9226 0.726562Z" fill="url(#paint0_linear_3860_5270)"/>
<defs>
<linearGradient id="paint0_linear_3860_5270" x1="0.691406" y1="23.9577" x2="47.1539" y2="23.9577" gradientUnits="userSpaceOnUse">
<stop stopColor="#F9F490"/>
<stop offset="0.254808" stopColor="#E4AB40"/>
<stop offset="0.75" stopColor="#FEFBA5"/>
<stop offset="1" stopColor="#BD894E"/>
</linearGradient>
</defs>
</svg>
