<svg width="73" height="51" viewBox="0 0 73 51" fill="none" xmlns="http://www.w3.org/2000/svg">
<g clip-path="url(#clip0_3860_5278)">
<g clip-path="url(#clip1_3860_5278)">
<path d="M71.2032 7.95007C70.3653 4.81913 67.9046 2.35868 64.7737 1.52057C59.1047 4.55163e-07 36.3618 0 36.3618 0C36.3618 0 13.6193 4.55163e-07 7.95004 1.52057C4.81913 2.35868 2.35868 4.81913 1.52057 7.95007C4.55163e-07 13.6193 0 25.4545 0 25.4545C0 25.4545 4.55163e-07 37.2899 1.52057 42.9591C2.35868 46.09 4.81913 48.5505 7.95004 49.3884C13.6193 50.9091 36.3618 50.9091 36.3618 50.9091C36.3618 50.9091 59.1047 50.9091 64.7737 49.3884C67.9046 48.5505 70.3653 46.09 71.2032 42.9591C72.7239 37.2899 72.7239 25.4545 72.7239 25.4545C72.7239 25.4545 72.7178 13.6193 71.2032 7.95007Z" fill="#FF0000"/>
<path d="M29.082 36.3616L47.9754 25.4543L29.082 14.5469V36.3616Z" fill="white"/>
</g>
</g>
<defs>
<clipPath id="clip0_3860_5278">
<rect width="72.7236" height="50.9091" fill="white"/>
</clipPath>
<clipPath id="clip1_3860_5278">
<rect width="72.7236" height="50.9091" fill="white"/>
</clipPath>
</defs>
</svg>
