<svg width="1440" height="172" viewBox="0 0 1440 172" fill="none" xmlns="http://www.w3.org/2000/svg">
<g opacity="0.6">
<mask id="mask0_3810_12987" style="mask-type:alpha" maskUnits="userSpaceOnUse" x="0" y="0" width="1440" height="172">
<rect width="1440" height="172" fill="url(#paint0_linear_3810_12987)"/>
</mask>
<g mask="url(#mask0_3810_12987)">
<path fill-rule="evenodd" clip-rule="evenodd" d="M56.909 0.4375C71.4829 0.437522 83.2252 5.43828 92.0537 15.4673L92.468 15.9345C101.11 25.7974 105.4 38.6912 105.4 54.5404V55.4985L104.533 55.3259H103.09V55.0551L75.4713 50.329V49.667C75.4713 42.8071 73.7823 37.2783 70.4675 33.0163L70.4621 33.0102C67.1738 28.6884 62.6856 26.5259 56.909 26.5259C50.2314 26.5259 44.6625 31.668 40.3611 42.7148C36.0773 53.7162 33.9159 68.1815 33.9159 86.1473C33.9159 104.507 36.0769 119.065 40.3564 129.864C44.7553 140.715 50.3227 145.769 56.909 145.769C61.259 145.769 64.8429 145.462 67.6752 144.862C70.3248 144.301 72.2594 143.493 73.5512 142.489V104.361H39.5817V78.2722H103.922V157.993L103.647 158.228C98.8187 162.352 92.4143 165.643 84.4686 168.127L84.4694 168.127C76.5963 170.619 67.4051 171.856 56.909 171.856C45.5033 171.856 35.4778 168.249 26.8662 161.039L26.8585 161.033C18.3678 153.741 11.7527 143.675 6.9906 130.877L6.9883 130.87C2.32325 117.967 1.20785e-05 103.055 0 86.1473C0 60.4494 5.18782 39.7519 15.6389 24.1241L16.1321 23.3915C26.5346 8.13159 40.1397 0.4375 56.909 0.4375ZM70.8065 32.1756L70.7605 32.1165C70.6886 32.027 70.6149 31.9395 70.5419 31.8518C70.6307 31.9585 70.719 32.0664 70.8065 32.1756Z" fill="url(#paint1_linear_3810_12987)"/>
<path fill-rule="evenodd" clip-rule="evenodd" d="M161.772 0.4375C172.223 0.437576 181.516 4.26336 189.624 11.8681C197.812 19.3569 204.226 29.5669 208.886 42.4578C213.55 55.3579 215.875 69.9249 215.875 86.1473C215.875 111.645 210.933 132.333 200.984 148.152C191.119 163.898 178.038 171.856 161.772 171.856C150.848 171.856 141.261 168.242 133.044 161.027L133.036 161.021C124.941 153.725 118.674 143.657 114.211 130.862L114.21 130.86C109.745 117.96 107.521 103.051 107.521 86.1473C107.521 70.0228 109.845 55.5054 114.509 42.6058C119.17 29.7152 125.581 19.4581 133.766 11.8719C141.974 4.2652 151.318 0.4375 161.772 0.4375ZM132.819 159.755C133.065 159.985 133.312 160.213 133.562 160.437L132.819 159.755C132.573 159.525 132.33 159.293 132.087 159.057L132.819 159.755ZM125.337 151.188C125.752 151.766 126.175 152.334 126.604 152.891L125.966 152.047C125.754 151.763 125.545 151.477 125.337 151.188ZM161.772 26.5259C159.004 26.5259 156.41 27.8318 153.982 30.6137C151.54 33.4109 149.304 37.6619 147.301 43.4259C143.4 54.9375 141.437 69.1709 141.437 86.1473C141.437 104.214 143.352 118.737 147.151 129.748C151.08 140.75 156.028 145.769 161.772 145.769C164.709 145.769 167.376 144.492 169.792 141.818C172.225 139.125 174.385 135.03 176.239 129.469L176.24 129.465C180.043 118.252 181.959 103.822 181.959 86.1473C181.959 68.6749 179.896 54.3492 175.803 43.142L175.801 43.1344C173.797 37.4666 171.597 33.2865 169.226 30.5363C166.866 27.7991 164.384 26.526 161.772 26.5259ZM175.985 132.492C176.079 132.249 176.174 132.004 176.267 131.755L176.278 131.725C176.182 131.984 176.083 132.239 175.985 132.492ZM114.544 129.401L114.544 129.397C114.524 129.338 114.506 129.279 114.486 129.22C114.506 129.28 114.524 129.341 114.544 129.401ZM182.697 90.8197C182.687 91.2965 182.675 91.7708 182.663 92.2427C182.688 91.3156 182.708 90.379 182.721 89.4328L182.697 90.8197ZM145.503 46.5073C145.492 46.5433 145.482 46.5794 145.472 46.6155C145.593 46.1998 145.717 45.7874 145.844 45.3781L145.503 46.5073ZM148.527 38.1474C147.982 39.3728 147.453 40.6889 146.941 42.0957L147.329 41.0578C147.589 40.377 147.853 39.7188 148.122 39.0833C148.256 38.7657 148.391 38.4538 148.527 38.1474ZM159.53 26.0127C159.439 26.0353 159.348 26.0593 159.258 26.0848C159.44 26.0338 159.622 25.9887 159.806 25.949L159.53 26.0127Z" fill="url(#paint2_linear_3810_12987)"/>
<path fill-rule="evenodd" clip-rule="evenodd" d="M790.698 100.03C790.698 114.372 792.286 125.021 795.395 132.058C796.945 135.567 798.857 138.14 801.103 139.834C803.34 141.522 805.949 142.371 808.965 142.371C811.982 142.371 814.592 141.522 816.828 139.834C819.074 138.14 820.986 135.566 822.536 132.058C825.645 125.021 827.232 114.372 827.232 100.03V1.91494H858.933V105.347C858.933 127.281 854.825 143.887 846.481 155.037C838.106 166.229 825.553 171.807 808.968 171.856H808.965C792.476 171.856 779.972 166.302 771.598 155.11C763.255 143.962 759.097 127.333 758.998 105.351V1.91494H790.698V100.03ZM793.596 169.129C793.778 169.18 793.961 169.229 794.145 169.278C793.947 169.225 793.749 169.172 793.553 169.117L793.596 169.129ZM777.264 160.224C777.307 160.264 777.351 160.302 777.395 160.341C777.199 160.164 777.005 159.985 776.812 159.803L777.264 160.224Z" fill="url(#paint3_linear_3810_12987)"/>
<path fill-rule="evenodd" clip-rule="evenodd" d="M1077.03 0.4375C1086.93 0.437514 1095.76 1.52599 1103.52 3.71379C1111.35 5.82096 1117.56 9.84706 1122.1 15.8002L1122.53 16.3595C1126.93 22.2159 1129.32 30.4324 1129.8 40.9167L1129.84 41.7091L1099.62 42.7992L1099.58 42.0305C1099.3 36.9442 1097.21 33.59 1093.38 31.7667L1093.37 31.7636L1093.37 31.7598C1089.38 29.7675 1083.96 28.7413 1077.03 28.7412C1073.24 28.7412 1070.28 30.2468 1068.06 33.2917L1068.06 33.2963L1068.06 33.3009C1065.82 36.2799 1064.67 40.2351 1064.67 45.2362C1064.67 50.2074 1066.36 54.5498 1069.75 58.2969C1073.15 62.0604 1078.31 65.2514 1085.28 67.8343L1086.64 68.3459C1100.68 73.6894 1111.32 80.7887 1118.51 89.6775C1125.95 98.8644 1129.66 109.911 1129.66 122.775C1129.66 137.486 1125.83 149.399 1118.09 158.436L1118.1 158.437C1110.42 167.42 1099.1 171.856 1084.27 171.856C1073.76 171.856 1064.51 170.42 1056.53 167.527C1048.48 164.609 1042.23 159.417 1037.81 151.977C1036.46 149.714 1035.33 147.184 1034.39 144.39V170.38H954.692V1.91494H986.393V144.291H1034.36C1032.24 137.898 1031.2 130.126 1031.2 121.003V120.045L1032.06 120.217H1033.51V120.491L1062.84 125.694L1063.49 125.809V126.468C1063.49 133.442 1065.38 137.94 1068.9 140.288C1072.56 142.731 1077.66 143.996 1084.27 143.996C1089.04 143.996 1092.41 142.147 1094.52 138.482L1094.52 138.477C1096.79 134.59 1097.95 129.714 1097.95 123.809C1097.95 118.282 1096.2 113.532 1092.68 109.52C1089.16 105.493 1083.83 102.17 1076.62 99.5884L1076.61 99.5869C1061.82 94.1928 1050.65 87.2515 1043.17 78.7264C1035.68 70.1856 1031.94 60.0922 1031.94 48.4849C1031.94 33.9534 1036.07 22.2727 1044.41 13.5304L1044.41 13.5273C1052.85 4.79166 1063.74 0.4375 1077.03 0.4375ZM1051.88 164.596C1052.33 164.836 1052.78 165.066 1053.23 165.288L1053.23 165.287C1052.78 165.065 1052.32 164.835 1051.88 164.596L1051.88 164.596ZM1098.32 129.654C1098.3 129.821 1098.27 129.986 1098.24 130.151C1098.3 129.821 1098.35 129.489 1098.39 129.152C1098.37 129.32 1098.35 129.487 1098.32 129.654ZM1084.86 102.413C1084.89 102.429 1084.92 102.446 1084.95 102.463C1084.65 102.294 1084.34 102.127 1084.03 101.963C1084.31 102.111 1084.59 102.261 1084.86 102.413ZM1087.7 69.5994C1087.77 69.6236 1087.83 69.648 1087.89 69.6723C1087.38 69.4726 1086.88 69.275 1086.37 69.0801L1087.7 69.5994ZM1032.87 43.8723C1032.85 44.0869 1032.84 44.3022 1032.83 44.5182C1032.85 44.0861 1032.88 43.6567 1032.91 43.2303L1032.87 43.8723ZM1067 33.4321C1066.92 33.5502 1066.84 33.6703 1066.77 33.7911C1066.91 33.5657 1067.06 33.3446 1067.21 33.1283L1067 33.4321ZM1061.74 3.50974C1061.61 3.55213 1061.48 3.59505 1061.36 3.63861C1061.66 3.53705 1061.96 3.43921 1062.26 3.34405L1061.74 3.50974Z" fill="url(#paint4_linear_3810_12987)"/>
<path fill-rule="evenodd" clip-rule="evenodd" d="M1392.22 2.22715C1397.73 2.22715 1402.94 3.09528 1407.84 4.83146C1412.75 6.49215 1417.17 9.09585 1421.09 12.6436C1425.02 16.1915 1428.38 20.7589 1431.17 26.3448C1434.04 31.8552 1436.23 38.4604 1437.74 46.1598C1439.25 53.7838 1440 62.54 1440 72.4285V101.076C1440 113.455 1438.83 124.099 1436.49 133.006C1434.15 141.913 1430.87 149.235 1426.64 154.972C1422.41 160.634 1417.39 164.823 1411.58 167.541C1405.77 170.258 1399.35 171.617 1392.33 171.617C1386.74 171.617 1381.5 170.749 1376.59 169.013C1371.69 167.277 1367.23 164.635 1363.23 161.087C1359.31 157.464 1355.91 152.896 1353.04 147.386C1350.25 141.8 1348.1 135.195 1346.59 127.571C1345.08 119.871 1344.32 111.04 1344.32 101.076V72.4285C1344.32 60.0489 1345.49 49.4432 1347.83 40.6114C1350.25 31.7041 1353.57 24.4196 1357.8 18.7582C1362.02 13.0968 1367.04 8.94475 1372.86 6.30276C1378.74 3.58541 1385.2 2.22716 1392.22 2.22715ZM1392.22 28.6093C1389.73 28.6093 1387.5 29.2888 1385.54 30.6475C1383.57 32.0062 1381.88 34.2328 1380.44 37.3274C1379.01 40.3468 1377.91 44.3856 1377.16 49.443C1376.48 54.425 1376.14 60.5395 1376.14 67.786V105.491C1376.14 111.304 1376.37 116.437 1376.82 120.891C1377.35 125.344 1378.06 129.156 1378.97 132.327C1379.95 135.422 1381.05 137.913 1382.25 139.8C1383.54 141.687 1385.01 143.083 1386.67 143.989C1388.41 144.819 1390.29 145.235 1392.33 145.235C1394.75 145.235 1396.94 144.555 1398.9 143.197C1400.94 141.762 1402.63 139.498 1403.99 136.403C1405.35 133.308 1406.37 129.232 1407.05 124.174C1407.81 119.041 1408.18 112.813 1408.18 105.491V67.786C1408.18 61.9738 1407.92 56.8787 1407.39 52.5007C1406.94 48.1225 1406.26 44.4232 1405.35 41.4038C1404.52 38.3845 1403.43 35.9313 1402.07 34.0442C1400.79 32.1571 1399.31 30.7982 1397.65 29.9678C1395.99 29.0621 1394.18 28.6093 1392.22 28.6093Z" fill="url(#paint5_linear_3810_12987)"/>
<path d="M1312.83 135.61C1318.49 135.61 1322.98 137.309 1326.3 140.706C1329.63 144.027 1331.29 148.179 1331.29 153.161C1331.29 158.143 1329.63 162.295 1326.3 165.616C1322.98 168.937 1318.49 170.598 1312.83 170.598C1307.17 170.598 1302.68 168.937 1299.36 165.616C1296.04 162.295 1294.37 158.143 1294.37 153.161C1294.37 148.179 1296.04 144.027 1299.36 140.706C1302.68 137.309 1307.17 135.61 1312.83 135.61Z" fill="url(#paint6_linear_3810_12987)"/>
<path d="M255.752 144.291H303.752V170.38H224.051V1.91494H255.752V144.291Z" fill="url(#paint7_linear_3810_12987)"/>
<path fill-rule="evenodd" clip-rule="evenodd" d="M345.798 1.91494C364.627 1.91495 379.105 8.85406 389.115 22.7655L389.585 23.4176C399.36 37.2162 404.184 58.1707 404.184 86.1473C404.184 114.752 399.75 136.008 390.764 149.788L390.765 149.788C381.839 163.528 368.282 170.38 350.229 170.38H307.498V1.91494H345.798ZM339.199 26.9554V145.328C340.538 145.332 341.578 145.342 342.313 145.363C342.747 145.375 343.088 145.391 343.326 145.411C343.441 145.421 343.557 145.434 343.655 145.453C343.675 145.457 343.705 145.464 343.74 145.473H348.161C351.918 145.473 355.143 144.293 357.875 141.935C360.622 139.563 362.911 135.965 364.704 131.071L364.705 131.067C368.397 121.158 370.268 106.207 370.268 86.1473C370.268 66.1394 368.261 51.2326 364.306 41.3555C362.331 36.4239 359.887 32.7922 357.009 30.3967C354.147 28.0144 350.818 26.8229 346.988 26.8212L339.199 26.9554ZM402.692 68.6858C402.689 68.6566 402.687 68.6274 402.685 68.5983C402.677 68.5141 402.67 68.43 402.662 68.3459C402.672 68.459 402.682 68.5723 402.692 68.6858ZM402.61 67.7714C402.6 67.6559 402.59 67.5405 402.58 67.4254C402.566 67.2786 402.551 67.1322 402.537 66.9859C402.562 67.2469 402.586 67.5087 402.61 67.7714ZM402.385 65.4916C402.372 65.3653 402.36 65.2392 402.346 65.1134C402.305 64.7316 402.263 64.3516 402.219 63.9735C402.199 63.7988 402.176 63.6249 402.155 63.4511C402.236 64.1255 402.313 64.8056 402.385 65.4916ZM401.212 56.8325C401.182 56.6534 401.153 56.4745 401.123 56.2963C401.101 56.1702 401.078 56.0445 401.056 55.9189C401.109 56.222 401.16 56.5267 401.212 56.8325ZM401.001 55.6074C400.979 55.4859 400.959 55.3642 400.937 55.2431C400.911 55.0987 400.882 54.955 400.856 54.8112C400.905 55.0756 400.953 55.3409 401.001 55.6074ZM360.186 32.5077C360.27 32.6106 360.354 32.7146 360.437 32.8199L360.186 32.5077C360.101 32.4049 360.017 32.3035 359.932 32.2032L360.186 32.5077ZM354.854 27.9764C355.059 28.089 355.263 28.2062 355.465 28.3285L355.161 28.149C355.059 28.0903 354.957 28.0328 354.854 27.9764ZM347.53 2.72039C347.805 2.72681 348.079 2.73391 348.352 2.74341C347.795 2.72401 347.233 2.7116 346.667 2.70505L347.53 2.72039Z" fill="url(#paint8_linear_3810_12987)"/>
<path d="M498.117 28.0025H444.947V71.0354H470.895C473.787 70.937 481.425 70.8873 493.787 70.8873H494.046L494.385 70.717L494.786 71.1175L494.933 71.2655L495.163 71.4957V95.9416H444.947V144.291H500.333V170.38H413.247V1.91494H498.117V28.0025Z" fill="url(#paint9_linear_3810_12987)"/>
<path d="M542.383 2.445L576.744 102.558V1.91494H608.444V170.38H564.858L539.028 95.1385V170.38H507.328V1.91494H542.2L542.383 2.445Z" fill="url(#paint10_linear_3810_12987)"/>
<path fill-rule="evenodd" clip-rule="evenodd" d="M701.001 1.91494C715.662 1.91494 726.315 5.27813 732.736 12.2048C739.246 19.1213 742.402 30.6973 742.402 46.7129C742.402 53.7112 741.002 59.8502 738.173 65.1042C735.627 69.8329 732.211 73.6276 727.93 76.4772C735.354 79.1625 741.275 84.1816 745.683 91.4955L746.128 92.2365C750.654 99.961 752.889 109.714 752.889 121.446C752.889 138.829 749.786 151.421 743.4 159.023C736.984 166.661 726.268 170.38 711.487 170.38H659.157V1.91494H701.001ZM742.205 159.198C742.107 159.306 742.01 159.413 741.911 159.518C742.113 159.303 742.311 159.083 742.504 158.861L742.205 159.198ZM690.858 145.325H702.921C708.911 145.325 712.937 143.207 715.228 139.09C717.593 134.738 718.826 127.763 718.826 118.049C718.826 110.224 716.656 104.135 712.397 99.6874L712.391 99.6813L712.386 99.6751C708.219 95.1294 702.727 92.8403 695.832 92.8403H695.812L690.858 92.7129V145.325ZM715.364 140.374C715.387 140.339 715.412 140.305 715.435 140.269L715.443 140.257C715.417 140.297 715.39 140.335 715.364 140.374ZM719.592 120.05C719.593 119.982 719.595 119.914 719.597 119.846V119.818C719.595 119.896 719.593 119.973 719.592 120.05ZM741.737 87.2419C741.904 87.4463 742.07 87.6531 742.234 87.8625L741.737 87.2419C741.569 87.0376 741.4 86.836 741.23 86.6367L741.737 87.2419ZM695.238 69.413C694.805 69.4416 694.363 69.4567 693.912 69.4567L693.912 69.4575C694.363 69.4575 694.805 69.4416 695.238 69.413ZM690.858 26.9562V68.672H693.912C698.908 68.6719 702.701 66.8499 705.393 63.2294L705.394 63.2263C708.225 59.4516 709.668 54.6553 709.668 48.781C709.668 41.4997 709.273 36.3649 708.51 33.3155L708.507 33.3017L708.503 33.2879C707.825 30.0886 706.719 28.4748 705.428 27.9435L705.411 27.9366L705.393 27.9281C703.861 27.2071 701.823 26.822 699.237 26.8212L690.858 26.9562Z" fill="url(#paint11_linear_3810_12987)"/>
<path d="M903.537 144.291H951.537V170.38H871.836V1.91494H903.537V144.291Z" fill="url(#paint12_linear_3810_12987)"/>
<path d="M1234.46 2.11362C1244.5 2.11365 1252.96 4.00069 1259.83 7.77483C1266.69 11.5491 1271.87 16.9467 1275.34 23.9668C1278.89 30.9115 1280.66 39.2528 1280.66 48.9904C1280.66 54.4253 1279.94 59.7469 1278.51 64.9553C1277.07 70.0884 1275.04 75.2219 1272.39 80.3549C1269.75 85.4124 1266.47 90.5832 1262.54 95.8672C1258.69 101.151 1254.39 106.624 1249.64 112.286L1228.12 142.97H1284.51V169.353H1187.36V146.82L1231.97 90.0925C1236.27 84.2046 1239.63 78.9958 1242.05 74.4666C1244.46 69.9375 1246.2 65.8989 1247.26 62.351C1248.31 58.7278 1248.84 55.2931 1248.84 52.0473C1248.84 47.2165 1248.28 43.0649 1247.14 39.5927C1246.01 36.0448 1244.31 33.3271 1242.05 31.4399C1239.86 29.4774 1237.14 28.4958 1233.9 28.4958C1229.97 28.4958 1226.73 29.704 1224.16 32.1196C1221.59 34.5351 1219.67 37.8562 1218.38 42.0834C1217.18 46.2352 1216.57 50.9532 1216.57 56.2372H1184.76C1184.76 46.4241 1186.76 37.4034 1190.76 29.1754C1194.83 20.872 1200.53 14.3043 1207.85 9.47319C1215.25 4.56661 1224.12 2.11362 1234.46 2.11362Z" fill="url(#paint13_linear_3810_12987)"/>
</g>
</g>
<defs>
<linearGradient id="paint0_linear_3810_12987" x1="720" y1="0" x2="720" y2="172" gradientUnits="userSpaceOnUse">
<stop stop-color="#D9D9D9"/>
<stop offset="0.794849" stop-color="#888888" stop-opacity="0.1"/>
<stop offset="1" stop-color="#737373" stop-opacity="0"/>
</linearGradient>
<linearGradient id="paint1_linear_3810_12987" x1="0" y1="86.1469" x2="1440" y2="86.1469" gradientUnits="userSpaceOnUse">
<stop stop-color="#F9F490"/>
<stop offset="0.254808" stop-color="#E4AB40"/>
<stop offset="0.75" stop-color="#FEFBA5"/>
<stop offset="1" stop-color="#BD894E"/>
</linearGradient>
<linearGradient id="paint2_linear_3810_12987" x1="0" y1="86.1469" x2="1440" y2="86.1469" gradientUnits="userSpaceOnUse">
<stop stop-color="#F9F490"/>
<stop offset="0.254808" stop-color="#E4AB40"/>
<stop offset="0.75" stop-color="#FEFBA5"/>
<stop offset="1" stop-color="#BD894E"/>
</linearGradient>
<linearGradient id="paint3_linear_3810_12987" x1="0" y1="86.1469" x2="1440" y2="86.1469" gradientUnits="userSpaceOnUse">
<stop stop-color="#F9F490"/>
<stop offset="0.254808" stop-color="#E4AB40"/>
<stop offset="0.75" stop-color="#FEFBA5"/>
<stop offset="1" stop-color="#BD894E"/>
</linearGradient>
<linearGradient id="paint4_linear_3810_12987" x1="0" y1="86.1469" x2="1440" y2="86.1469" gradientUnits="userSpaceOnUse">
<stop stop-color="#F9F490"/>
<stop offset="0.254808" stop-color="#E4AB40"/>
<stop offset="0.75" stop-color="#FEFBA5"/>
<stop offset="1" stop-color="#BD894E"/>
</linearGradient>
<linearGradient id="paint5_linear_3810_12987" x1="0" y1="86.1469" x2="1440" y2="86.1469" gradientUnits="userSpaceOnUse">
<stop stop-color="#F9F490"/>
<stop offset="0.254808" stop-color="#E4AB40"/>
<stop offset="0.75" stop-color="#FEFBA5"/>
<stop offset="1" stop-color="#BD894E"/>
</linearGradient>
<linearGradient id="paint6_linear_3810_12987" x1="0" y1="86.1469" x2="1440" y2="86.1469" gradientUnits="userSpaceOnUse">
<stop stop-color="#F9F490"/>
<stop offset="0.254808" stop-color="#E4AB40"/>
<stop offset="0.75" stop-color="#FEFBA5"/>
<stop offset="1" stop-color="#BD894E"/>
</linearGradient>
<linearGradient id="paint7_linear_3810_12987" x1="0" y1="86.1469" x2="1440" y2="86.1469" gradientUnits="userSpaceOnUse">
<stop stop-color="#F9F490"/>
<stop offset="0.254808" stop-color="#E4AB40"/>
<stop offset="0.75" stop-color="#FEFBA5"/>
<stop offset="1" stop-color="#BD894E"/>
</linearGradient>
<linearGradient id="paint8_linear_3810_12987" x1="0" y1="86.1469" x2="1440" y2="86.1469" gradientUnits="userSpaceOnUse">
<stop stop-color="#F9F490"/>
<stop offset="0.254808" stop-color="#E4AB40"/>
<stop offset="0.75" stop-color="#FEFBA5"/>
<stop offset="1" stop-color="#BD894E"/>
</linearGradient>
<linearGradient id="paint9_linear_3810_12987" x1="0" y1="86.1469" x2="1440" y2="86.1469" gradientUnits="userSpaceOnUse">
<stop stop-color="#F9F490"/>
<stop offset="0.254808" stop-color="#E4AB40"/>
<stop offset="0.75" stop-color="#FEFBA5"/>
<stop offset="1" stop-color="#BD894E"/>
</linearGradient>
<linearGradient id="paint10_linear_3810_12987" x1="0" y1="86.1469" x2="1440" y2="86.1469" gradientUnits="userSpaceOnUse">
<stop stop-color="#F9F490"/>
<stop offset="0.254808" stop-color="#E4AB40"/>
<stop offset="0.75" stop-color="#FEFBA5"/>
<stop offset="1" stop-color="#BD894E"/>
</linearGradient>
<linearGradient id="paint11_linear_3810_12987" x1="0" y1="86.1469" x2="1440" y2="86.1469" gradientUnits="userSpaceOnUse">
<stop stop-color="#F9F490"/>
<stop offset="0.254808" stop-color="#E4AB40"/>
<stop offset="0.75" stop-color="#FEFBA5"/>
<stop offset="1" stop-color="#BD894E"/>
</linearGradient>
<linearGradient id="paint12_linear_3810_12987" x1="0" y1="86.1469" x2="1440" y2="86.1469" gradientUnits="userSpaceOnUse">
<stop stop-color="#F9F490"/>
<stop offset="0.254808" stop-color="#E4AB40"/>
<stop offset="0.75" stop-color="#FEFBA5"/>
<stop offset="1" stop-color="#BD894E"/>
</linearGradient>
<linearGradient id="paint13_linear_3810_12987" x1="0" y1="86.1469" x2="1440" y2="86.1469" gradientUnits="userSpaceOnUse">
<stop stop-color="#F9F490"/>
<stop offset="0.254808" stop-color="#E4AB40"/>
<stop offset="0.75" stop-color="#FEFBA5"/>
<stop offset="1" stop-color="#BD894E"/>
</linearGradient>
</defs>
</svg>
