<svg width="59" height="59" viewBox="0 0 59 59" fill="none" xmlns="http://www.w3.org/2000/svg">
<rect x="0.666667" y="0.666667" width="57.3333" height="57.3333" rx="28.6667" stroke="url(#paint0_linear_553_13004)" strokeWidth="1.33333"/>
<path d="M15.9997 19.3385L26.1791 27.0257L26.1825 27.0285C27.3128 27.8573 27.8782 28.272 28.4976 28.4322C29.0451 28.5738 29.6205 28.5738 30.168 28.4322C30.7879 28.2719 31.355 27.856 32.4873 27.0257C32.4873 27.0257 39.0165 22.0151 42.6663 19.3385M14.333 35.6722V23.0055C14.333 21.1387 14.333 20.2046 14.6963 19.4915C15.0159 18.8643 15.5255 18.3548 16.1527 18.0352C16.8657 17.6719 17.7998 17.6719 19.6667 17.6719H39C40.8668 17.6719 41.799 17.6719 42.512 18.0352C43.1392 18.3548 43.6505 18.8643 43.9701 19.4915C44.333 20.2039 44.333 21.1369 44.333 23.0001V35.6778C44.333 37.541 44.333 38.4727 43.9701 39.185C43.6505 39.8122 43.1392 40.3227 42.512 40.6423C41.7997 41.0052 40.868 41.0052 39.0048 41.0052H19.6612C17.798 41.0052 16.865 41.0052 16.1527 40.6423C15.5255 40.3227 15.0159 39.8122 14.6963 39.185C14.333 38.472 14.333 37.539 14.333 35.6722Z" stroke="url(#paint1_linear_553_13004)" strokeWidth="2.66667" strokeLinecap="round" strokeLinejoin="round"/>
<defs>
<linearGradient id="paint0_linear_553_13004" x1="0" y1="29.3333" x2="58.6667" y2="29.3333" gradientUnits="userSpaceOnUse">
<stop stopColor="#F9F490"/>
<stop offset="0.254808" stopColor="#E4AB40"/>
<stop offset="0.75" stopColor="#FEFBA5"/>
<stop offset="1" stopColor="#BD894E"/>
</linearGradient>
<linearGradient id="paint1_linear_553_13004" x1="14.333" y1="29.3385" x2="44.333" y2="29.3385" gradientUnits="userSpaceOnUse">
<stop stopColor="#F9F490"/>
<stop offset="0.254808" stopColor="#E4AB40"/>
<stop offset="0.75" stopColor="#FEFBA5"/>
<stop offset="1" stopColor="#BD894E"/>
</linearGradient>
</defs>
</svg>
