<svg width="215" height="72" viewBox="0 0 215 72" fill="none" xmlns="http://www.w3.org/2000/svg">
<path d="M91.4949 36.9247C91.4949 46.9186 83.5984 54.2829 73.9076 54.2829C64.2168 54.2829 56.3203 46.9186 56.3203 36.9247C56.3203 26.8603 64.2168 19.5664 73.9076 19.5664C83.5984 19.5664 91.4949 26.8603 91.4949 36.9247ZM83.7961 36.9247C83.7961 30.6795 79.2194 26.4064 73.9076 26.4064C68.5959 26.4064 64.0192 30.6795 64.0192 36.9247C64.0192 43.1073 68.5959 47.4429 73.9076 47.4429C79.2194 47.4429 83.7961 43.0994 83.7961 36.9247Z" fill="#EA4335"/>
<path d="M129.436 36.9247C129.436 46.9186 121.54 54.2829 111.849 54.2829C102.158 54.2829 94.2617 46.9186 94.2617 36.9247C94.2617 26.8681 102.158 19.5664 111.849 19.5664C121.54 19.5664 129.436 26.8603 129.436 36.9247ZM121.737 36.9247C121.737 30.6795 117.161 26.4064 111.849 26.4064C106.537 26.4064 101.961 30.6795 101.961 36.9247C101.961 43.1073 106.537 47.4429 111.849 47.4429C117.161 47.4429 121.737 43.0994 121.737 36.9247Z" fill="#FBBC05"/>
<path d="M165.793 20.6151V51.7786C165.793 64.5977 158.157 69.8334 149.131 69.8334C140.633 69.8334 135.519 64.2064 133.591 59.6047L140.294 56.8421C141.487 59.6673 144.412 63.0012 149.123 63.0012C154.901 63.0012 158.482 59.4716 158.482 52.8273V50.3308H158.213C156.49 52.436 153.17 54.2751 148.98 54.2751C140.214 54.2751 132.184 46.7151 132.184 36.9873C132.184 27.189 140.214 19.5664 148.98 19.5664C153.162 19.5664 156.482 21.4055 158.213 23.4481H158.482V20.6229H165.793V20.6151ZM159.027 36.9873C159.027 30.8751 154.909 26.4064 149.668 26.4064C144.356 26.4064 139.906 30.8751 139.906 36.9873C139.906 43.0368 144.356 47.4429 149.668 47.4429C154.909 47.4429 159.027 43.0368 159.027 36.9873Z" fill="#4285F4"/>
<path d="M177.849 2.34766V53.2172H170.34V2.34766H177.849Z" fill="#34A853"/>
<path d="M207.111 42.6377L213.087 46.5821C211.158 49.4073 206.511 54.2751 198.48 54.2751C188.52 54.2751 181.082 46.6525 181.082 36.9169C181.082 26.5942 188.583 19.5586 197.618 19.5586C206.716 19.5586 211.166 26.7273 212.621 30.6012L213.419 32.5734L189.982 42.1838C191.777 45.6664 194.567 47.4429 198.48 47.4429C202.4 47.4429 205.119 45.5334 207.111 42.6377ZM188.718 36.3925L204.384 29.9516C203.523 27.7838 200.93 26.2734 197.879 26.2734C193.966 26.2734 188.52 29.6934 188.718 36.3925Z" fill="#EA4335"/>
<path d="M27.8953 32.4072V25.0428H52.9602C53.2052 26.3263 53.3317 27.8446 53.3317 29.4881C53.3317 35.0133 51.8061 41.8454 46.8896 46.7133C42.1074 51.6437 35.9973 54.2733 27.9032 54.2733C12.9006 54.2733 0.285156 42.1741 0.285156 27.3202C0.285156 12.4663 12.9006 0.367188 27.9032 0.367188C36.2028 0.367188 42.1153 3.59154 46.5576 7.79414L41.3091 12.9907C38.1236 10.0324 33.8078 7.73153 27.8953 7.73153C16.9398 7.73153 8.37137 16.4733 8.37137 27.3202C8.37137 38.1672 16.9398 46.9089 27.8953 46.9089C35.0013 46.9089 39.0484 44.0837 41.641 41.5168C43.7436 39.435 45.1269 36.4611 45.6723 32.3994L27.8953 32.4072Z" fill="#4285F4"/>
</svg>
