<svg width="270" height="80" viewBox="0 0 270 80" fill="none" xmlns="http://www.w3.org/2000/svg">
<g clip-path="url(#clip0_3810_12835)">
<path d="M259.995 79.9985H10.0037C4.50378 79.9985 0.00390625 75.4986 0.00390625 69.9987V9.99981C0.00390625 4.49988 4.50378 0 10.0037 0H259.995C265.495 0 269.995 4.49988 269.995 9.99981V69.9987C269.995 75.4986 265.495 79.9985 259.995 79.9985Z" fill="black"/>
<path d="M259.995 0H10.0037C4.50378 0 0.00390625 4.49988 0.00390625 9.99981V69.9987C0.00390625 75.4986 4.50378 79.9985 10.0037 79.9985H259.995C265.495 79.9985 269.995 75.4986 269.995 69.9987V9.99981C269.995 4.49988 265.495 0 259.995 0ZM259.995 1.59916C264.627 1.59916 268.395 5.36793 268.395 9.99981V69.9987C268.395 74.6306 264.627 78.3993 259.995 78.3993H10.0037C5.37184 78.3993 1.60472 74.6306 1.60472 69.9987V9.99981C1.60472 5.36793 5.37184 1.59916 10.0037 1.59916H259.995Z" fill="#A2A2A1"/>
<path d="M213.872 59.9994H217.603V34.9957H213.872V59.9994ZM247.485 44.0033L243.207 54.8429H243.079L238.64 44.0033H234.62L241.28 59.1534L237.482 67.5812H241.374L251.636 44.004L247.485 44.0033ZM226.32 57.1592C225.1 57.1592 223.394 56.5475 223.394 55.0358C223.394 53.1061 225.518 52.3663 227.35 52.3663C228.99 52.3663 229.764 52.7195 230.76 53.2022C230.47 55.5186 228.476 57.1592 226.32 57.1592ZM226.772 43.4564C224.07 43.4564 221.272 44.6469 220.114 47.2845L223.426 48.6673C224.134 47.2845 225.452 46.8346 226.836 46.8346C228.766 46.8346 230.728 47.9916 230.76 50.0509V50.3079C230.084 49.9219 228.636 49.3431 226.868 49.3431C223.296 49.3431 219.662 51.3047 219.662 54.9718C219.662 58.3171 222.59 60.4725 225.87 60.4725C228.378 60.4725 229.764 59.3466 230.63 58.0273H230.76V59.9584H234.364V50.3718C234.364 45.9329 231.048 43.4564 226.772 43.4564ZM203.708 47.0469H198.4V38.4769H203.708C206.498 38.4769 208.082 40.7863 208.082 42.7619C208.082 44.6994 206.498 47.0469 203.708 47.0469ZM203.612 34.9963H194.67V60H198.4V50.5276H203.612C207.748 50.5276 211.814 47.5338 211.814 42.7628C211.814 37.9926 207.748 34.9963 203.612 34.9963ZM154.851 57.1634C152.273 57.1634 150.115 55.004 150.115 52.0409C150.115 49.0433 152.273 46.8534 154.851 46.8534C157.397 46.8534 159.394 49.0434 159.394 52.0409C159.394 55.004 157.397 57.1634 154.851 57.1634ZM159.136 45.4029H159.007C158.17 44.4043 156.558 43.5021 154.529 43.5021C150.275 43.5021 146.377 47.2403 146.377 52.0409C146.377 56.8088 150.275 60.5142 154.529 60.5142C156.558 60.5142 158.17 59.6118 159.007 58.5814H159.136V59.8048C159.136 63.0603 157.397 64.7992 154.593 64.7992C152.307 64.7992 150.889 63.1563 150.308 61.771L147.055 63.1241C147.988 65.3786 150.469 68.1506 154.594 68.1506C158.976 68.1506 162.682 65.5724 162.682 59.289V44.0174H159.136L159.136 45.4029ZM165.26 59.9986H168.996V34.995H165.26V59.9986ZM174.506 51.7504C174.41 48.4637 177.052 46.7886 178.952 46.7886C180.435 46.7886 181.691 47.53 182.111 48.5925L174.506 51.7504ZM186.105 48.9144C185.396 47.0145 183.238 43.5021 178.824 43.5021C174.441 43.5021 170.8 46.9496 170.8 52.0082C170.8 56.7769 174.41 60.5143 179.242 60.5143C183.14 60.5143 185.396 58.1308 186.331 56.7448L183.431 54.8113C182.464 56.2293 181.144 57.1636 179.242 57.1636C177.342 57.1636 175.988 56.2934 175.119 54.5857L186.491 49.8818L186.105 48.9144ZM95.4906 46.1121V49.7207H104.125C103.868 51.7505 103.191 53.2324 102.16 54.2636C100.903 55.5198 98.9373 56.9057 95.4905 56.9057C90.174 56.9057 86.0179 52.6207 86.0179 47.3043C86.0179 41.988 90.174 37.7023 95.4905 37.7023C98.3582 37.7023 100.452 38.8303 101.999 40.2802L104.545 37.7343C102.385 35.6725 99.5183 34.0938 95.4905 34.0938C88.2076 34.0938 82.0859 40.0224 82.0859 47.3043C82.0859 54.5855 88.2076 60.5143 95.4905 60.5143C99.4208 60.5143 102.386 59.2253 104.705 56.809C107.089 54.4246 107.831 51.0739 107.831 48.3669C107.831 47.5302 107.766 46.7568 107.637 46.1121H95.4906ZM117.649 57.1634C115.071 57.1634 112.847 55.0369 112.847 52.0082C112.847 48.9473 115.071 46.8536 117.649 46.8536C120.226 46.8536 122.449 48.9473 122.449 52.0082C122.449 55.0369 120.226 57.1634 117.649 57.1634ZM117.649 43.5021C112.943 43.5021 109.11 47.0784 109.11 52.0082C109.11 56.9057 112.943 60.5143 117.649 60.5143C122.352 60.5143 126.187 56.9057 126.187 52.0082C126.187 47.0784 122.352 43.5021 117.649 43.5021ZM136.274 57.1634C133.698 57.1634 131.474 55.0369 131.474 52.0082C131.474 48.9473 133.698 46.8536 136.274 46.8536C138.853 46.8536 141.075 48.9473 141.075 52.0082C141.075 55.0369 138.853 57.1634 136.274 57.1634ZM136.274 43.5021C131.571 43.5021 127.737 47.0784 127.737 52.0082C127.737 56.9057 131.571 60.5143 136.274 60.5143C140.98 60.5143 144.813 56.9057 144.813 52.0082C144.813 47.0784 140.98 43.5021 136.274 43.5021Z" fill="white"/>
<path d="M41.4318 38.8518L20.1406 61.451C20.1414 61.4556 20.143 61.4595 20.1438 61.4643C20.7968 63.9183 23.0382 65.7252 25.6983 65.7252C26.7617 65.7252 27.7601 65.4378 28.6163 64.9331L28.6843 64.8932L52.6514 51.0631L41.4318 38.8518Z" fill="#EB3131"/>
<path d="M62.9746 35.0047L62.9542 34.9907L52.6068 28.9922L40.9492 39.3657L52.6473 51.0623L62.9401 45.1234C64.7446 44.1493 65.9697 42.2469 65.9697 40.0531C65.9697 37.8751 64.7613 35.9821 62.9746 35.0047Z" fill="#F6B60B"/>
<path d="M20.1406 18.5547C20.0126 19.0267 19.9453 19.5211 19.9453 20.0345V59.9692C19.9453 60.4816 20.0118 60.9777 20.1414 61.448L42.1675 39.4264L20.1406 18.5547Z" fill="#5778C5"/>
<path d="M41.5908 40.0011L52.6118 28.9834L28.6717 15.1032C27.8015 14.582 26.7859 14.2812 25.6991 14.2812C23.039 14.2812 20.7945 16.0915 20.1414 18.5483C20.1406 18.5507 20.1406 18.5524 20.1406 18.5545L41.5908 40.0011Z" fill="#3BAD49"/>
<path d="M94.7905 19.5637H88.9562V21.0075H93.3281C93.2093 22.1857 92.7405 23.1107 91.9499 23.7825C91.1594 24.4545 90.1499 24.7919 88.9562 24.7919C87.6469 24.7919 86.5375 24.3357 85.6283 23.4295C84.7375 22.5046 84.2845 21.3607 84.2845 19.9827C84.2845 18.6047 84.7375 17.4609 85.6283 16.536C86.5375 15.6298 87.6469 15.1766 88.9562 15.1766C89.6282 15.1766 90.2688 15.2922 90.8561 15.5454C91.4437 15.7984 91.9155 16.1516 92.2843 16.6048L93.3937 15.4954C92.8905 14.9234 92.2531 14.486 91.4623 14.1672C90.6717 13.8484 89.8468 13.6954 88.9561 13.6954C87.2093 13.6954 85.7282 14.3016 84.5187 15.511C83.3094 16.7234 82.7031 18.2172 82.7031 19.9827C82.7031 21.7482 83.3093 23.2452 84.5187 24.4547C85.7281 25.6639 87.2093 26.2703 88.9561 26.2703C90.7904 26.2703 92.2529 25.6827 93.3779 24.4889C94.3685 23.4953 94.8747 22.1516 94.8747 20.4704C94.8747 20.186 94.8405 19.8825 94.7905 19.5637ZM97.0507 13.9639V26.0013H104.079V24.5232H98.5975V20.7046H103.541V19.2608H98.5975V15.4452H104.079V13.9639L97.0507 13.9639ZM113.933 15.4453V13.9639H105.662V15.4453H109.024V26.0013H110.571V15.4453H113.933ZM121.422 13.9639H119.875V26.0013H121.422V13.9639ZM131.632 15.4453V13.9639H123.36V15.4453H126.723V26.0013H128.269V15.4453H131.632ZM147.241 15.5297C146.047 14.3015 144.585 13.6953 142.838 13.6953C141.088 13.6953 139.626 14.3015 138.432 15.5109C137.238 16.7047 136.651 18.2015 136.651 19.9826C136.651 21.7637 137.238 23.2607 138.432 24.4546C139.626 25.6638 141.088 26.2702 142.838 26.2702C144.569 26.2702 146.047 25.6638 147.241 24.4546C148.435 23.2608 149.022 21.7639 149.022 19.9826C149.022 18.2171 148.435 16.7232 147.241 15.5297ZM139.541 16.5359C140.432 15.6297 141.526 15.1765 142.838 15.1765C144.147 15.1765 145.241 15.6297 146.116 16.5359C147.007 17.4264 147.444 18.5888 147.444 19.9826C147.444 21.3795 147.007 22.5387 146.116 23.4294C145.241 24.3356 144.147 24.7918 142.838 24.7918C141.526 24.7918 140.432 24.3356 139.541 23.4294C138.669 22.5201 138.232 21.3795 138.232 19.9826C138.232 18.5888 138.669 17.4452 139.541 16.5359ZM152.697 18.5046L152.632 16.1826H152.697L158.816 26.0012H160.431V13.9638H158.885V21.0074L158.95 23.3294H158.885L153.035 13.9638H151.15V26.0012H152.697V18.5046Z" fill="white" stroke="white" strokeWidth="0.399993" stroke-miterlimit="10"/>
</g>
<defs>
<clipPath id="clip0_3810_12835">
<rect width="270.002" height="80" fill="white"/>
</clipPath>
</defs>
</svg>
