<svg width="47" height="47" viewBox="0 0 47 47" fill="none" xmlns="http://www.w3.org/2000/svg">
<rect x="0.666667" y="0.666667" width="45.3333" height="45.3333" rx="22.6667" stroke="white" strokeWidth="1.33333"/>
<path d="M31.3425 34.894C32.9826 34.2603 34.2792 32.9637 34.9129 31.3236C35.2129 30.5467 35.4228 29.6603 35.4798 28.3637C35.4933 28.06 35.5038 27.805 35.5136 27.5493V18.8862C35.5068 18.7055 35.4993 18.5173 35.4896 18.3058C35.4326 17.0092 35.2226 16.1183 34.9226 15.3459C34.6129 14.5262 34.136 13.792 33.5121 13.1823C32.9016 12.5622 32.163 12.0807 31.3523 11.7762C30.5754 11.4763 29.689 11.2663 28.3924 11.2093C27.086 11.1471 26.6713 11.1328 23.3589 11.1328C20.0465 11.1328 19.6311 11.1471 18.33 11.2041C17.0334 11.261 16.1425 11.471 15.37 11.771C14.5504 12.0807 13.8162 12.5577 13.2058 13.1823C12.5863 13.7928 12.1049 14.5314 11.7997 15.3414C11.4997 16.1183 11.2897 17.0047 11.2327 18.3013C11.1705 19.6076 11.1562 20.0223 11.1562 23.3355C11.1562 26.6486 11.1705 27.0633 11.2275 28.3644C11.2845 29.661 11.4945 30.5527 11.7952 31.3244C12.1049 32.144 12.5863 32.8782 13.2058 33.4886C13.8162 34.108 14.5549 34.5902 15.3655 34.8947C16.1425 35.1947 17.0289 35.4047 18.3255 35.4617C19.6266 35.5194 20.0413 35.5336 23.3544 35.5336C26.6676 35.5336 27.0815 35.5194 28.3834 35.4617C29.68 35.4047 30.5701 35.1939 31.3425 34.894ZM23.3634 33.3401C20.1073 33.3401 19.7166 33.3259 18.4342 33.2689C17.2426 33.2164 16.5992 33.0162 16.1702 32.8497C15.6415 32.654 15.1601 32.3442 14.7686 31.9393C14.3636 31.5433 14.0532 31.0671 13.8582 30.5377C13.6917 30.1087 13.4915 29.4601 13.439 28.2737C13.382 26.9868 13.3678 26.6006 13.3678 23.3445C13.3678 20.0883 13.382 19.6976 13.439 18.416C13.4915 17.2244 13.6917 16.581 13.8582 16.152C14.0539 15.6226 14.3636 15.1411 14.7739 14.7504C15.1691 14.3455 15.646 14.0357 16.1747 13.84C16.6037 13.6735 17.2523 13.4733 18.4387 13.4208C19.7256 13.3638 20.1118 13.3496 23.3672 13.3496C26.6226 13.3496 27.014 13.3638 28.2964 13.4208C29.488 13.4733 30.1314 13.6735 30.5604 13.84C31.0891 14.0357 31.5705 14.3455 31.9612 14.7504C32.3662 15.1464 32.6766 15.6226 32.8716 16.152C33.0381 16.581 33.2383 17.2289 33.2908 18.416C33.3478 19.7029 33.3621 20.0891 33.3621 23.3445C33.3621 26.5999 33.3478 26.9816 33.2908 28.2684C33.2383 29.4601 33.0381 30.1035 32.8716 30.5324C32.4614 31.5958 31.6178 32.4395 30.5551 32.8489C30.1262 33.0154 29.4782 33.2156 28.2911 33.2681C27.0043 33.3251 26.6188 33.3401 23.3634 33.3401Z" fill="white"/>
<path d="M23.3592 17.0662C19.8983 17.0662 17.0906 19.8739 17.0906 23.3348C17.0906 26.7957 19.8983 29.6033 23.3592 29.6033C26.82 29.6033 29.627 26.7957 29.627 23.3348C29.627 19.8739 26.8193 17.0662 23.3592 17.0662ZM23.3592 27.4001C21.1139 27.4001 19.2931 25.5793 19.2931 23.334C19.2931 21.0888 21.1139 19.268 23.3592 19.268C25.6044 19.268 27.4252 21.0888 27.4252 23.334C27.4252 25.5793 25.6044 27.4001 23.3592 27.4001Z" fill="white"/>
<path d="M31.3367 16.8184C31.3367 16.01 30.6813 15.3553 29.8728 15.3553C29.0644 15.3553 28.4098 16.0107 28.4098 16.8184C28.4098 17.6261 29.0652 18.2815 29.8728 18.2815C30.6805 18.2815 31.3367 17.6268 31.3367 16.8184Z" fill="white"/>
</svg>
