<svg width="48" height="48" viewBox="0 0 48 48" fill="none" xmlns="http://www.w3.org/2000/svg">
<g clip-path="url(#clip0_3860_5266)">
<path d="M24 28.9219C26.7183 28.9219 28.9219 26.7183 28.9219 24C28.9219 21.2817 26.7183 19.0781 24 19.0781C21.2817 19.0781 19.0781 21.2817 19.0781 24C19.0781 26.7183 21.2817 28.9219 24 28.9219Z" fill="url(#paint0_linear_3860_5266)"/>
<path d="M24 0.5625C11.0558 0.5625 0.5625 11.0558 0.5625 24C0.5625 36.9442 11.0558 47.4375 24 47.4375C36.9442 47.4375 47.4375 36.9442 47.4375 24C47.4375 11.0558 36.9442 0.5625 24 0.5625ZM38.4804 29.9569C38.3679 32.1851 37.7418 34.3824 36.1179 35.989C34.4783 37.6109 32.2706 38.2152 30.0209 38.3266H17.9792C15.7292 38.2152 13.5217 37.6113 11.8822 35.989C10.2582 34.3824 9.63216 32.1851 9.51966 29.9569V18.0431C9.63216 15.8149 10.2583 13.6176 11.8822 12.0109C13.5217 10.389 15.7295 9.78469 17.9792 9.67341H30.0208C32.2708 9.78469 34.4782 10.3887 36.1178 12.0109C37.7418 13.6176 38.3678 15.8149 38.4803 18.0431L38.4804 29.9569Z" fill="url(#paint1_linear_3860_5266)"/>
<path d="M29.8675 12.3885C26.9345 12.308 21.0638 12.308 18.1308 12.3885C16.6044 12.4304 14.8741 12.8103 13.7866 13.9719C12.6565 15.1793 12.2295 16.638 12.1862 18.27C12.1101 21.1342 12.1862 29.7311 12.1862 29.7311C12.2358 31.3628 12.6565 32.8217 13.7866 34.0291C14.8741 35.1911 16.6044 35.5707 18.1308 35.6126C21.0638 35.693 26.9345 35.693 29.8675 35.6126C31.3939 35.5707 33.1242 35.1907 34.2117 34.0291C35.3418 32.8217 35.7688 31.363 35.8121 29.7311V18.27C35.7688 16.638 35.3418 15.1793 34.2117 13.9719C33.1238 12.81 31.3935 12.4304 29.8675 12.3885ZM23.9988 31.6294C22.4899 31.6294 21.0149 31.182 19.7604 30.3437C18.5058 29.5054 17.528 28.314 16.9506 26.92C16.3732 25.526 16.2221 23.9921 16.5165 22.5122C16.8108 21.0323 17.5374 19.673 18.6043 18.6061C19.6712 17.5391 21.0306 16.8126 22.5104 16.5182C23.9903 16.2238 25.5242 16.3749 26.9182 16.9523C28.3122 17.5297 29.5037 18.5076 30.342 19.7621C31.1802 21.0167 31.6277 22.4917 31.6277 24.0005C31.6277 26.0238 30.8239 27.9643 29.3932 29.395C27.9625 30.8257 26.0221 31.6294 23.9988 31.6294ZM31.6601 17.9463C31.3584 17.9463 31.0634 17.8567 30.8125 17.689C30.5617 17.5213 30.3662 17.283 30.2507 17.0042C30.1353 16.7254 30.1052 16.4186 30.1641 16.1227C30.223 15.8267 30.3683 15.5549 30.5817 15.3415C30.7951 15.1282 31.067 14.9829 31.363 14.9241C31.6589 14.8652 31.9657 14.8955 32.2445 15.0109C32.5232 15.1264 32.7615 15.322 32.9292 15.5729C33.0968 15.8238 33.1863 16.1188 33.1863 16.4205C33.1863 16.6209 33.1468 16.8194 33.0701 17.0045C32.9934 17.1897 32.881 17.3579 32.7392 17.4996C32.5975 17.6413 32.4293 17.7536 32.2441 17.8303C32.059 17.9069 31.8605 17.9464 31.6601 17.9463Z" fill="url(#paint2_linear_3860_5266)"/>
</g>
<defs>
<linearGradient id="paint0_linear_3860_5266" x1="19.0781" y1="24" x2="28.9219" y2="24" gradientUnits="userSpaceOnUse">
<stop stop-color="#F9F490"/>
<stop offset="0.254808" stop-color="#E4AB40"/>
<stop offset="0.75" stop-color="#FEFBA5"/>
<stop offset="1" stop-color="#BD894E"/>
</linearGradient>
<linearGradient id="paint1_linear_3860_5266" x1="0.5625" y1="24" x2="47.4375" y2="24" gradientUnits="userSpaceOnUse">
<stop stop-color="#F9F490"/>
<stop offset="0.254808" stop-color="#E4AB40"/>
<stop offset="0.75" stop-color="#FEFBA5"/>
<stop offset="1" stop-color="#BD894E"/>
</linearGradient>
<linearGradient id="paint2_linear_3860_5266" x1="12.1523" y1="24.0005" x2="35.8121" y2="24.0005" gradientUnits="userSpaceOnUse">
<stop stop-color="#F9F490"/>
<stop offset="0.254808" stop-color="#E4AB40"/>
<stop offset="0.75" stop-color="#FEFBA5"/>
<stop offset="1" stop-color="#BD894E"/>
</linearGradient>
<clipPath id="clip0_3860_5266">
<rect width="48" height="48" fill="white"/>
</clipPath>
</defs>
</svg>
