<svg width="13" height="13" viewBox="0 0 13 13" fill="none" xmlns="http://www.w3.org/2000/svg">
<path d="M6.15078 2.98047C7.87344 2.98047 9.29531 4.40234 9.29531 6.125C9.29531 7.875 7.87344 9.26953 6.15078 9.26953C4.40078 9.26953 3.00625 7.875 3.00625 6.125C3.00625 4.40234 4.40078 2.98047 6.15078 2.98047ZM6.15078 8.17578C7.27187 8.17578 8.17422 7.27344 8.17422 6.125C8.17422 5.00391 7.27187 4.10156 6.15078 4.10156C5.00234 4.10156 4.1 5.00391 4.1 6.125C4.1 7.27344 5.02969 8.17578 6.15078 8.17578ZM10.143 2.87109C10.143 3.28125 9.81484 3.60938 9.40469 3.60938C8.99453 3.60938 8.66641 3.28125 8.66641 2.87109C8.66641 2.46094 8.99453 2.13281 9.40469 2.13281C9.81484 2.13281 10.143 2.46094 10.143 2.87109ZM12.2211 3.60938C12.2758 4.62109 12.2758 7.65625 12.2211 8.66797C12.1664 9.65234 11.9477 10.5 11.2367 11.2383C10.5258 11.9492 9.65078 12.168 8.66641 12.2227C7.65469 12.2773 4.61953 12.2773 3.60781 12.2227C2.62344 12.168 1.77578 11.9492 1.0375 11.2383C0.326562 10.5 0.107812 9.65234 0.0531249 8.66797C-0.0015626 7.65625 -0.0015626 4.62109 0.0531249 3.60938C0.107812 2.625 0.326562 1.75 1.0375 1.03906C1.77578 0.328125 2.62344 0.109375 3.60781 0.0546875C4.61953 0 7.65469 0 8.66641 0.0546875C9.65078 0.109375 10.5258 0.328125 11.2367 1.03906C11.9477 1.75 12.1664 2.625 12.2211 3.60938ZM10.9086 9.73438C11.2367 8.94141 11.1547 7.02734 11.1547 6.125C11.1547 5.25 11.2367 3.33594 10.9086 2.51562C10.6898 1.99609 10.2797 1.55859 9.76016 1.36719C8.93984 1.03906 7.02578 1.12109 6.15078 1.12109C5.24844 1.12109 3.33437 1.03906 2.54141 1.36719C1.99453 1.58594 1.58437 1.99609 1.36562 2.51562C1.0375 3.33594 1.11953 5.25 1.11953 6.125C1.11953 7.02734 1.0375 8.94141 1.36562 9.73438C1.58437 10.2812 1.99453 10.6914 2.54141 10.9102C3.33437 11.2383 5.24844 11.1562 6.15078 11.1562C7.02578 11.1562 8.93984 11.2383 9.76016 10.9102C10.2797 10.6914 10.7172 10.2812 10.9086 9.73438Z" fill="white"/>
</svg>
