<svg width="13" height="13" viewBox="0 0 13 13" fill="none" xmlns="http://www.w3.org/2000/svg">
<path d="M2.73281 12.2266H0.189844V4.05078H2.73281V12.2266ZM1.44766 2.95703C0.654687 2.95703 -0.0015626 2.27344 -0.0015626 1.45312C-0.0015626 0.660156 0.654687 0.00390625 1.44766 0.00390625C2.26797 0.00390625 2.92422 0.660156 2.92422 1.45312C2.92422 2.27344 2.26797 2.95703 1.44766 2.95703ZM12.2211 12.2266H9.70547V8.26172C9.70547 7.30469 9.67812 6.10156 8.36562 6.10156C7.05312 6.10156 6.86172 7.11328 6.86172 8.17969V12.2266H4.31875V4.05078H6.75234V5.17188H6.77969C7.13516 4.54297 7.95547 3.85938 9.18594 3.85938C11.7562 3.85938 12.2484 5.55469 12.2484 7.74219V12.2266H12.2211Z" fill="white"/>
</svg>
