<svg width="47" height="47" viewBox="0 0 47 47" fill="none" xmlns="http://www.w3.org/2000/svg">
<rect x="0.666667" y="0.666667" width="45.3333" height="45.3333" rx="22.6667" stroke="white" strokeWidth="1.33333"/>
<path d="M17.9084 32.8371V20.0123H13.6495V32.8371H17.9084ZM15.7799 18.2616C17.2647 18.2616 18.1892 17.2768 18.1892 16.0461C18.1614 14.7874 17.2647 13.8301 15.8081 13.8301C14.3504 13.8301 13.3984 14.7874 13.3984 16.046C13.3984 17.2767 14.3225 18.2615 15.7519 18.2615L15.7799 18.2616ZM20.2658 32.8371H24.5245V25.676C24.5245 25.2932 24.5523 24.9094 24.6648 24.636C24.9725 23.8698 25.6733 23.0768 26.8501 23.0768C28.3908 23.0768 29.0075 24.2527 29.0075 25.977V32.8371H33.266V25.4838C33.266 21.5447 31.1652 19.7117 28.3632 19.7117C26.066 19.7117 25.057 20.9968 24.4965 21.8721H24.5248V20.0128H20.2661C20.3217 21.2159 20.2658 32.8371 20.2658 32.8371Z" fill="white"/>
</svg>
