<svg width="20" height="20" viewBox="0 0 20 20" fill="none" xmlns="http://www.w3.org/2000/svg">
<path d="M10.0013 14.1667C10.4615 14.1667 10.8346 13.7936 10.8346 13.3333C10.8346 12.8731 10.4615 12.5 10.0013 12.5C9.54106 12.5 9.16797 12.8731 9.16797 13.3333C9.16797 13.7936 9.54106 14.1667 10.0013 14.1667Z" stroke="white" stroke-width="1.66667" stroke-linecap="round" stroke-linejoin="round"/>
<path d="M15.8333 8.33398H4.16667C3.24619 8.33398 2.5 9.08018 2.5 10.0007V16.6673C2.5 17.5878 3.24619 18.334 4.16667 18.334H15.8333C16.7538 18.334 17.5 17.5878 17.5 16.6673V10.0007C17.5 9.08018 16.7538 8.33398 15.8333 8.33398Z" stroke="white" stroke-width="1.66667" stroke-linecap="round" stroke-linejoin="round"/>
<path d="M5.83203 8.33268V5.83268C5.83203 4.72761 6.27102 3.66781 7.05242 2.8864C7.83382 2.105 8.89363 1.66602 9.9987 1.66602C11.1038 1.66602 12.1636 2.105 12.945 2.8864C13.7264 3.66781 14.1654 4.72761 14.1654 5.83268V8.33268" stroke="white" stroke-width="1.66667" stroke-linecap="round" stroke-linejoin="round"/>
</svg>
