<svg width="139" height="90" viewBox="0 0 139 90" fill="none" xmlns="http://www.w3.org/2000/svg">
<path d="M66.5996 3.99121L66.3398 4.13379C58.1596 8.63337 39.5893 18.5316 33.1982 45.6436C48.2704 46.9793 61.2549 60.6721 61.2549 76.3818C61.2546 93.3073 46.9502 107.672 30.6348 107.672C13.818 107.672 0.500224 93.2913 0.5 76.3818C0.5 46.4109 21.032 7.79095 66.0215 0.677734L66.5996 0.586914V3.99121ZM138.5 3.99121L138.241 4.13379C130.061 8.63329 111.49 18.5312 105.099 45.6436C120.171 46.9792 133.156 60.672 133.156 76.3818C133.156 93.3073 118.851 107.672 102.535 107.672C85.7185 107.672 72.4006 93.2912 72.4004 76.3818C72.4004 46.4109 92.9324 7.79095 137.922 0.677734L138.5 0.586914V3.99121Z" stroke="url(#paint0_linear_1597_678)"/>
<defs>
<linearGradient id="paint0_linear_1597_678" x1="69.5" y1="1.17187" x2="69.5" y2="107.172" gradientUnits="userSpaceOnUse">
<stop offset="0.0336538" stop-color="#EEB92B"/>
<stop offset="0.817308" stop-color="#724900"/>
</linearGradient>
</defs>
</svg>
