<svg width="14" height="12" viewBox="0 0 14 12" fill="none" xmlns="http://www.w3.org/2000/svg">
<path d="M12.5523 2.82031C12.5523 2.95703 12.5523 3.06641 12.5523 3.20312C12.5523 7.00391 9.68125 11.3516 4.40391 11.3516C2.76328 11.3516 1.25938 10.8867 0.0015626 10.0664C0.220313 10.0938 0.439063 10.1211 0.685156 10.1211C2.025 10.1211 3.25547 9.65625 4.23984 8.89062C2.98203 8.86328 1.91563 8.04297 1.56016 6.89453C1.75156 6.92188 1.91563 6.94922 2.10703 6.94922C2.35313 6.94922 2.62656 6.89453 2.84531 6.83984C1.53281 6.56641 0.548438 5.41797 0.548438 4.02344V3.99609C0.93125 4.21484 1.39609 4.32422 1.86094 4.35156C1.06797 3.83203 0.575781 2.95703 0.575781 1.97266C0.575781 1.42578 0.7125 0.933594 0.958594 0.523438C2.38047 2.24609 4.51328 3.39453 6.89219 3.53125C6.8375 3.3125 6.81016 3.09375 6.81016 2.875C6.81016 1.28906 8.09531 0.00390625 9.68125 0.00390625C10.5016 0.00390625 11.2398 0.332031 11.7867 0.90625C12.4156 0.769531 13.0445 0.523438 13.5914 0.195312C13.3727 0.878906 12.9352 1.42578 12.3336 1.78125C12.9078 1.72656 13.482 1.5625 13.9742 1.34375C13.5914 1.91797 13.0992 2.41016 12.5523 2.82031Z" fill="white"/>
</svg>
