<svg width="48" height="48" viewBox="0 0 48 48" fill="none" xmlns="http://www.w3.org/2000/svg">
<g clip-path="url(#clip0_3860_5260)">
<path d="M20.6719 27.8721L27.3287 24.01L20.6719 20.1289V27.8721Z" fill="url(#paint0_linear_3860_5260)"/>
<path d="M24 0C19.2533 0 14.6131 1.40758 10.6663 4.04473C6.71955 6.68188 3.64341 10.4302 1.8269 14.8156C0.0103988 19.201 -0.464881 24.0266 0.461164 28.6822C1.38721 33.3377 3.67299 37.6141 7.02945 40.9706C10.3859 44.327 14.6623 46.6128 19.3178 47.5389C23.9734 48.4649 28.799 47.9896 33.1844 46.1731C37.5698 44.3566 41.3181 41.2805 43.9553 37.3337C46.5924 33.3869 48 28.7468 48 24C48 17.6348 45.4714 11.5303 40.9706 7.02944C36.4697 2.52856 30.3652 0 24 0ZM36.6316 28.2474C36.632 28.8751 36.5087 29.4967 36.2688 30.0768C36.0289 30.6568 35.677 31.1839 35.2333 31.6279C34.7896 32.0719 34.2627 32.4241 33.6828 32.6644C33.103 32.9047 32.4814 33.0284 31.8537 33.0284H16.1463C15.5186 33.0284 14.8971 32.9047 14.3172 32.6644C13.7373 32.4241 13.2104 32.0719 12.7667 31.6279C12.323 31.1839 11.9711 30.6568 11.7312 30.0768C11.4913 29.4967 11.368 28.8751 11.3684 28.2474V19.7526C11.368 19.1249 11.4913 18.5033 11.7312 17.9232C11.9711 17.3432 12.323 16.8161 12.7667 16.3721C13.2104 15.9281 13.7373 15.5759 14.3172 15.3356C14.8971 15.0953 15.5186 14.9716 16.1463 14.9716H31.8537C32.4814 14.9716 33.103 15.0953 33.6828 15.3356C34.2627 15.5759 34.7896 15.9281 35.2333 16.3721C35.677 16.8161 36.0289 17.3432 36.2688 17.9232C36.5087 18.5033 36.632 19.1249 36.6316 19.7526V28.2474Z" fill="url(#paint1_linear_3860_5260)"/>
</g>
<defs>
<linearGradient id="paint0_linear_3860_5260" x1="20.6719" y1="24.0005" x2="27.3287" y2="24.0005" gradientUnits="userSpaceOnUse">
<stop stop-color="#F9F490"/>
<stop offset="0.254808" stop-color="#E4AB40"/>
<stop offset="0.75" stop-color="#FEFBA5"/>
<stop offset="1" stop-color="#BD894E"/>
</linearGradient>
<linearGradient id="paint1_linear_3860_5260" x1="0" y1="24" x2="48" y2="24" gradientUnits="userSpaceOnUse">
<stop stop-color="#F9F490"/>
<stop offset="0.254808" stop-color="#E4AB40"/>
<stop offset="0.75" stop-color="#FEFBA5"/>
<stop offset="1" stop-color="#BD894E"/>
</linearGradient>
<clipPath id="clip0_3860_5260">
<rect width="48" height="48" fill="white"/>
</clipPath>
</defs>
</svg>
